<?xml version="1.0" encoding="utf-8"?>
<!-- Generator: Adobe Illustrator 16.0.0, SVG Export Plug-In . SVG Version: 6.00 Build 0)  -->
<!DOCTYPE svg PUBLIC "-//W3C//DTD SVG 1.1//EN" "http://www.w3.org/Graphics/SVG/1.1/DTD/svg11.dtd">
<svg version="1.1" id="Capa_1" xmlns="http://www.w3.org/2000/svg" xmlns:xlink="http://www.w3.org/1999/xlink" x="0px" y="0px"
	 width="113.637px" height="45.588px" viewBox="0 0 113.637 45.588" enable-background="new 0 0 113.637 45.588"
	 xml:space="preserve">
<g opacity="0.7">
	<path fill="#FFFFFF" d="M31.208,30.08c0-0.598-0.489-1.078-1.098-1.078c-0.373,0-0.699,0.182-0.899,0.463
		c-1.456,1.488-3.479,2.41-5.718,2.41c-4.434,0-8.028-3.617-8.028-8.08c0-4.464,3.595-8.082,8.028-8.082
		c1.875,0,3.598,0.651,4.964,1.737c0.188,0.147,0.425,0.243,0.687,0.243c0.605,0,1.098-0.483,1.098-1.078
		c0-0.319-0.144-0.603-0.365-0.799l0.006-0.01c-1.748-1.417-3.968-2.269-6.389-2.269c-5.631,0-10.189,4.592-10.189,10.257
		c0,5.663,4.559,10.257,10.189,10.257c2.898,0,5.506-1.223,7.363-3.178l-0.005-0.003C31.069,30.675,31.208,30.395,31.208,30.08z"/>
	<path fill="#FFFFFF" d="M39.548,27.668c-0.646,0.73-1.574,1.094-2.792,1.094s-2.147-0.363-2.79-1.094
		c-0.863-0.896-1.293-2.188-1.293-3.872c0-1.717,0.43-3.006,1.293-3.869c0.643-0.73,1.572-1.095,2.79-1.095s2.146,0.365,2.792,1.095
		c0.858,0.863,1.285,2.152,1.285,3.869C40.833,25.48,40.406,26.772,39.548,27.668z M38.435,26.24
		c0.412-0.572,0.619-1.387,0.619-2.444c0-1.051-0.207-1.865-0.619-2.44c-0.412-0.576-0.973-0.863-1.679-0.863
		c-0.705,0-1.267,0.287-1.687,0.859c-0.42,0.574-0.63,1.388-0.63,2.443c0,1.058,0.21,1.872,0.63,2.444s0.981,0.859,1.687,0.859
		C37.462,27.1,38.022,26.813,38.435,26.24z"/>
	<path fill="#FFFFFF" d="M44.078,19.118h1.866l3.38,6.542v-6.542h1.657v9.384h-1.775l-3.471-6.657v6.657h-1.657V19.118z"/>
	<path fill="#FFFFFF" d="M60.757,19.118v1.662h-2.548v7.722h-1.791V20.78h-2.56v-1.662H60.757z"/>
	<path fill="#FFFFFF" d="M69.171,19.361c0.312,0.15,0.578,0.367,0.797,0.653c0.179,0.24,0.322,0.504,0.426,0.791
		c0.107,0.288,0.158,0.617,0.158,0.986c0,0.446-0.102,0.885-0.304,1.316c-0.206,0.43-0.544,0.734-1.013,0.913
		c0.393,0.173,0.672,0.421,0.835,0.741c0.164,0.32,0.245,0.809,0.245,1.467v0.63c0,0.428,0.016,0.72,0.049,0.872
		c0.045,0.241,0.155,0.419,0.326,0.535v0.236h-1.964c-0.053-0.209-0.093-0.377-0.117-0.504c-0.044-0.264-0.069-0.532-0.073-0.809
		l-0.012-0.871c-0.006-0.599-0.1-0.998-0.281-1.197s-0.518-0.3-1.015-0.3h-1.735v3.681h-1.74v-9.384h4.074
		C68.409,19.132,68.856,19.212,69.171,19.361z M65.493,20.749v2.519h1.914c0.381,0,0.664-0.051,0.855-0.151
		c0.337-0.179,0.504-0.53,0.504-1.057c0-0.568-0.162-0.95-0.488-1.146c-0.182-0.111-0.457-0.165-0.824-0.165H65.493z"/>
	<path fill="#FFFFFF" d="M80.728,27.668c-0.641,0.73-1.571,1.094-2.787,1.094c-1.219,0-2.148-0.363-2.791-1.094
		c-0.861-0.896-1.296-2.188-1.296-3.872c0-1.717,0.435-3.006,1.296-3.869c0.643-0.73,1.572-1.095,2.791-1.095
		c1.216,0,2.146,0.365,2.787,1.095c0.861,0.863,1.29,2.152,1.29,3.869C82.018,25.48,81.589,26.772,80.728,27.668z M79.62,26.24
		c0.41-0.572,0.618-1.387,0.618-2.444c0-1.051-0.208-1.865-0.618-2.44c-0.416-0.576-0.976-0.863-1.68-0.863
		c-0.706,0-1.27,0.287-1.688,0.859c-0.42,0.574-0.631,1.388-0.631,2.443c0,1.058,0.211,1.872,0.631,2.444
		c0.418,0.572,0.981,0.859,1.688,0.859C78.645,27.1,79.204,26.813,79.62,26.24z"/>
	<path fill="#FFFFFF" d="M85.292,19.118h1.779v7.694h4.25v1.689h-6.029V19.118z"/>
	<path fill="#FFFFFF" d="M100.732,20.78h-4.505v1.993h4.136v1.629h-4.136v2.41h4.712v1.689h-6.452v-9.384h6.245V20.78z"/>
	<path fill="#FFFFFF" d="M109.7,19.361c0.314,0.15,0.579,0.367,0.797,0.653c0.18,0.24,0.324,0.504,0.43,0.791
		c0.103,0.288,0.155,0.617,0.155,0.986c0,0.446-0.102,0.885-0.304,1.316c-0.205,0.43-0.544,0.734-1.012,0.913
		c0.393,0.173,0.67,0.421,0.834,0.741s0.246,0.809,0.246,1.467v0.63c0,0.428,0.016,0.72,0.047,0.872
		c0.049,0.241,0.157,0.419,0.328,0.535v0.236h-1.963c-0.055-0.209-0.094-0.377-0.116-0.504c-0.046-0.264-0.073-0.532-0.073-0.809
		l-0.014-0.871c-0.006-0.599-0.102-0.998-0.282-1.197c-0.179-0.199-0.519-0.3-1.013-0.3h-1.738v3.681h-1.739v-9.384h4.073
		C108.938,19.132,109.386,19.212,109.7,19.361z M106.022,20.749v2.519h1.916c0.381,0,0.664-0.051,0.854-0.151
		c0.339-0.179,0.507-0.53,0.507-1.057c0-0.568-0.165-0.95-0.49-1.146c-0.184-0.111-0.457-0.165-0.822-0.165H106.022z"/>
	<path fill="#FFFFFF" d="M35.753,30.516c0.257,0.273,0.398,0.582,0.428,0.93h-0.492c-0.053-0.263-0.162-0.47-0.328-0.625
		c-0.163-0.155-0.391-0.232-0.686-0.232c-0.359,0-0.648,0.143-0.869,0.426c-0.223,0.283-0.332,0.719-0.332,1.305
		c0,0.479,0.1,0.867,0.3,1.168c0.2,0.298,0.497,0.445,0.892,0.445c0.365,0,0.642-0.156,0.832-0.469
		c0.102-0.166,0.178-0.384,0.229-0.653h0.492c-0.045,0.432-0.188,0.792-0.434,1.085c-0.291,0.35-0.682,0.525-1.18,0.525
		c-0.426,0-0.784-0.143-1.076-0.432c-0.381-0.38-0.573-0.969-0.573-1.765c0-0.605,0.144-1.101,0.432-1.488
		c0.31-0.421,0.738-0.629,1.282-0.629C35.136,30.106,35.495,30.243,35.753,30.516z"/>
	<path fill="#FFFFFF" d="M38.767,31.623c0.239,0.258,0.361,0.634,0.361,1.133c0,0.482-0.105,0.877-0.316,1.189
		c-0.211,0.315-0.539,0.472-0.982,0.472c-0.37,0-0.666-0.14-0.881-0.416c-0.22-0.278-0.328-0.649-0.328-1.117
		c0-0.501,0.114-0.901,0.342-1.198c0.232-0.297,0.539-0.445,0.926-0.445C38.236,31.24,38.529,31.369,38.767,31.623z M38.485,33.608
		c0.112-0.251,0.166-0.53,0.166-0.839c0-0.279-0.04-0.505-0.121-0.68c-0.125-0.274-0.346-0.414-0.654-0.414
		c-0.275,0-0.476,0.119-0.602,0.353c-0.125,0.234-0.186,0.516-0.186,0.847c0,0.318,0.061,0.582,0.186,0.793
		c0.126,0.211,0.326,0.317,0.596,0.317C38.17,33.985,38.374,33.859,38.485,33.608z"/>
	<path fill="#FFFFFF" d="M39.686,31.326h0.433v0.424c0.131-0.176,0.265-0.298,0.41-0.376c0.143-0.077,0.303-0.114,0.477-0.114
		c0.385,0,0.645,0.148,0.779,0.443c0.072,0.161,0.112,0.393,0.112,0.693v1.916h-0.466V32.43c0-0.182-0.021-0.327-0.072-0.439
		c-0.08-0.188-0.226-0.279-0.441-0.279c-0.105,0-0.195,0.012-0.264,0.036c-0.125,0.043-0.235,0.124-0.328,0.246
		c-0.076,0.099-0.127,0.199-0.15,0.305c-0.02,0.105-0.031,0.255-0.031,0.45v1.564h-0.458V31.326z"/>
	<path fill="#FFFFFF" d="M42.659,30.492h0.459v0.834h0.434v0.41h-0.434v1.947c0,0.107,0.033,0.175,0.098,0.211
		c0.033,0.021,0.094,0.029,0.179,0.029c0.019,0,0.044,0,0.068-0.003c0.026,0,0.054-0.003,0.089-0.009v0.4
		c-0.051,0.018-0.106,0.027-0.163,0.035c-0.058,0.009-0.116,0.011-0.183,0.011c-0.215,0-0.355-0.058-0.432-0.179
		c-0.077-0.121-0.115-0.275-0.115-0.468v-1.976h-0.367v-0.41h0.367V30.492z"/>
	<path fill="#FFFFFF" d="M44.021,31.326h0.432v0.516c0.035-0.1,0.122-0.222,0.26-0.365c0.14-0.145,0.299-0.217,0.479-0.217
		c0.01,0,0.023,0,0.044,0.002c0.021,0.004,0.056,0.006,0.104,0.012v0.529c-0.028-0.005-0.053-0.008-0.074-0.011
		c-0.025-0.002-0.05-0.002-0.076-0.002c-0.228,0-0.404,0.081-0.529,0.241c-0.121,0.164-0.182,0.352-0.182,0.563v1.718h-0.457V31.326
		z"/>
	<path fill="#FFFFFF" d="M47.694,31.623c0.241,0.258,0.361,0.634,0.361,1.133c0,0.482-0.104,0.877-0.316,1.189
		c-0.213,0.315-0.538,0.472-0.982,0.472c-0.37,0-0.666-0.14-0.883-0.416c-0.218-0.278-0.325-0.649-0.325-1.117
		c0-0.501,0.114-0.901,0.345-1.198c0.229-0.297,0.537-0.445,0.923-0.445C47.162,31.24,47.456,31.369,47.694,31.623z M47.411,33.608
		c0.113-0.251,0.168-0.53,0.168-0.839c0-0.279-0.039-0.505-0.119-0.68c-0.127-0.274-0.345-0.414-0.658-0.414
		c-0.273,0-0.475,0.119-0.598,0.353c-0.127,0.234-0.189,0.516-0.189,0.847c0,0.318,0.063,0.582,0.189,0.793
		c0.123,0.211,0.322,0.317,0.595,0.317C47.098,33.985,47.304,33.859,47.411,33.608z"/>
	<path fill="#FFFFFF" d="M48.627,30.219h0.456v4.094h-0.456V30.219z"/>
	<path fill="#FFFFFF" d="M52.694,31.418c0.079,0.057,0.17,0.154,0.273,0.293v-1.508h0.438v4.109h-0.409v-0.416
		c-0.106,0.184-0.232,0.316-0.376,0.398c-0.145,0.082-0.312,0.122-0.496,0.122c-0.303,0-0.562-0.14-0.783-0.419
		c-0.217-0.278-0.328-0.651-0.328-1.115c0-0.436,0.1-0.813,0.299-1.133c0.202-0.316,0.49-0.477,0.861-0.477
		C52.38,31.273,52.552,31.321,52.694,31.418z M51.677,33.657c0.121,0.214,0.318,0.322,0.588,0.322c0.211,0,0.383-0.101,0.52-0.3
		c0.135-0.2,0.2-0.486,0.2-0.859c0-0.377-0.067-0.657-0.207-0.838c-0.142-0.18-0.312-0.271-0.516-0.271
		c-0.23,0-0.413,0.096-0.556,0.291c-0.142,0.191-0.214,0.477-0.214,0.852C51.492,33.173,51.553,33.441,51.677,33.657z"/>
	<path fill="#FFFFFF" d="M55.759,31.41c0.18,0.098,0.316,0.229,0.412,0.385c0.09,0.15,0.15,0.327,0.181,0.527
		c0.024,0.137,0.04,0.357,0.04,0.656h-1.969c0.006,0.305,0.071,0.549,0.192,0.731c0.12,0.185,0.306,0.275,0.56,0.275
		c0.234,0,0.423-0.087,0.563-0.259c0.079-0.102,0.134-0.221,0.167-0.351h0.448c-0.013,0.11-0.052,0.232-0.118,0.366
		c-0.066,0.135-0.142,0.244-0.223,0.328c-0.137,0.149-0.309,0.251-0.51,0.304c-0.109,0.028-0.231,0.043-0.369,0.043
		c-0.336,0-0.62-0.135-0.854-0.405c-0.232-0.27-0.35-0.648-0.35-1.135c0-0.48,0.119-0.869,0.354-1.168s0.541-0.449,0.92-0.449
		C55.396,31.26,55.581,31.309,55.759,31.41z M55.923,32.582c-0.018-0.219-0.061-0.395-0.129-0.522
		c-0.122-0.242-0.33-0.36-0.617-0.36c-0.207,0-0.383,0.081-0.523,0.248c-0.141,0.166-0.215,0.377-0.223,0.635H55.923z"/>
	<path fill="#FFFFFF" d="M58.368,31.341h0.445v0.396c0.094-0.137,0.19-0.24,0.299-0.314c0.156-0.111,0.336-0.167,0.543-0.167
		c0.309,0,0.57,0.13,0.784,0.388c0.214,0.26,0.321,0.631,0.321,1.111c0,0.65-0.154,1.115-0.463,1.395
		c-0.197,0.175-0.426,0.264-0.686,0.264c-0.203,0-0.377-0.049-0.517-0.146c-0.082-0.058-0.171-0.152-0.272-0.287v1.522h-0.455
		V31.341z M60.082,33.68c0.14-0.193,0.212-0.488,0.212-0.879c0-0.237-0.031-0.441-0.094-0.613c-0.118-0.327-0.336-0.493-0.65-0.493
		s-0.531,0.175-0.65,0.521c-0.061,0.187-0.092,0.423-0.092,0.709c0,0.23,0.031,0.426,0.092,0.588c0.12,0.311,0.336,0.463,0.65,0.463
		C59.765,33.975,59.938,33.877,60.082,33.68z"/>
	<path fill="#FFFFFF" d="M61.302,31.326h0.43v0.516c0.037-0.1,0.125-0.222,0.261-0.365c0.14-0.145,0.298-0.217,0.479-0.217
		c0.008,0,0.023,0,0.043,0.002c0.02,0.004,0.057,0.006,0.104,0.012v0.529c-0.027-0.005-0.051-0.008-0.074-0.011
		c-0.021-0.002-0.047-0.002-0.074-0.002c-0.229,0-0.404,0.081-0.528,0.241c-0.122,0.164-0.185,0.352-0.185,0.563v1.718h-0.455
		V31.326z"/>
	<path fill="#FFFFFF" d="M64.978,31.623c0.238,0.258,0.359,0.634,0.359,1.133c0,0.482-0.105,0.877-0.317,1.189
		c-0.21,0.315-0.538,0.472-0.979,0.472c-0.373,0-0.666-0.14-0.885-0.416c-0.217-0.278-0.326-0.649-0.326-1.117
		c0-0.501,0.115-0.901,0.344-1.198c0.23-0.297,0.539-0.445,0.928-0.445C64.446,31.24,64.737,31.369,64.978,31.623z M64.694,33.608
		c0.111-0.251,0.168-0.53,0.168-0.839c0-0.279-0.041-0.505-0.121-0.68c-0.128-0.274-0.346-0.414-0.656-0.414
		c-0.274,0-0.475,0.119-0.6,0.353c-0.123,0.234-0.186,0.516-0.186,0.847c0,0.318,0.063,0.582,0.186,0.793
		c0.125,0.211,0.322,0.317,0.596,0.317C64.38,33.985,64.583,33.859,64.694,33.608z"/>
	<path fill="#FFFFFF" d="M67.687,31.486c0.19,0.164,0.306,0.444,0.344,0.844h-0.444c-0.024-0.184-0.087-0.337-0.185-0.458
		c-0.096-0.122-0.248-0.183-0.461-0.183c-0.291,0-0.497,0.156-0.621,0.469c-0.082,0.201-0.123,0.451-0.123,0.747
		c0,0.298,0.059,0.55,0.171,0.754c0.115,0.204,0.296,0.306,0.542,0.306c0.189,0,0.341-0.061,0.449-0.189
		c0.111-0.126,0.187-0.301,0.228-0.52h0.444c-0.05,0.394-0.177,0.685-0.379,0.868c-0.203,0.183-0.461,0.273-0.776,0.273
		c-0.355,0-0.636-0.142-0.847-0.427c-0.213-0.285-0.316-0.643-0.316-1.069c0-0.524,0.113-0.931,0.347-1.226
		c0.229-0.291,0.522-0.436,0.882-0.436C67.246,31.24,67.493,31.321,67.687,31.486z"/>
	<path fill="#FFFFFF" d="M70.158,31.41c0.181,0.098,0.317,0.229,0.41,0.385c0.091,0.15,0.151,0.327,0.183,0.527
		c0.025,0.137,0.039,0.357,0.039,0.656h-1.971c0.008,0.305,0.072,0.549,0.195,0.731c0.119,0.185,0.305,0.275,0.557,0.275
		c0.238,0,0.424-0.087,0.565-0.259c0.078-0.102,0.136-0.221,0.167-0.351h0.451c-0.014,0.11-0.055,0.232-0.119,0.366
		c-0.068,0.135-0.144,0.244-0.225,0.328c-0.139,0.149-0.307,0.251-0.508,0.304c-0.109,0.028-0.232,0.043-0.371,0.043
		c-0.334,0-0.619-0.135-0.852-0.405c-0.234-0.27-0.35-0.648-0.35-1.135c0-0.48,0.117-0.869,0.353-1.168s0.54-0.449,0.921-0.449
		C69.794,31.26,69.979,31.309,70.158,31.41z M70.321,32.582c-0.018-0.219-0.061-0.395-0.127-0.522
		c-0.123-0.242-0.331-0.36-0.619-0.36c-0.207,0-0.383,0.081-0.523,0.248c-0.141,0.166-0.213,0.377-0.225,0.635H70.321z"/>
	<path fill="#FFFFFF" d="M71.639,33.376c0.014,0.166,0.054,0.296,0.114,0.384c0.119,0.161,0.321,0.242,0.61,0.242
		c0.171,0,0.324-0.039,0.456-0.121c0.129-0.08,0.193-0.204,0.193-0.375c0-0.128-0.051-0.225-0.155-0.291
		c-0.067-0.043-0.198-0.09-0.395-0.144l-0.369-0.1c-0.233-0.063-0.408-0.134-0.52-0.214c-0.198-0.135-0.297-0.32-0.297-0.563
		c0-0.281,0.093-0.51,0.28-0.684c0.188-0.176,0.439-0.263,0.755-0.263c0.413,0,0.712,0.133,0.895,0.394
		c0.114,0.17,0.169,0.349,0.167,0.543h-0.432c-0.008-0.113-0.043-0.215-0.11-0.309c-0.106-0.132-0.292-0.196-0.558-0.196
		c-0.175,0-0.309,0.036-0.398,0.109c-0.094,0.071-0.138,0.166-0.138,0.286c0,0.128,0.06,0.232,0.181,0.311
		c0.068,0.045,0.17,0.088,0.303,0.122l0.305,0.081c0.336,0.086,0.559,0.171,0.671,0.254c0.179,0.128,0.269,0.328,0.269,0.605
		c0,0.265-0.094,0.493-0.28,0.688c-0.185,0.193-0.468,0.288-0.844,0.288c-0.41,0-0.699-0.101-0.868-0.301
		c-0.17-0.203-0.262-0.452-0.273-0.748H71.639z"/>
	<path fill="#FFFFFF" d="M75.921,31.623c0.24,0.258,0.359,0.634,0.359,1.133c0,0.482-0.106,0.877-0.316,1.189
		c-0.213,0.315-0.538,0.472-0.983,0.472c-0.369,0-0.664-0.14-0.88-0.416c-0.218-0.278-0.326-0.649-0.326-1.117
		c0-0.501,0.114-0.901,0.342-1.198c0.23-0.297,0.538-0.445,0.926-0.445C75.389,31.24,75.685,31.369,75.921,31.623z M75.638,33.608
		c0.112-0.251,0.165-0.53,0.165-0.839c0-0.279-0.037-0.505-0.118-0.68c-0.127-0.274-0.346-0.414-0.654-0.414
		c-0.275,0-0.478,0.119-0.602,0.353c-0.125,0.234-0.187,0.516-0.187,0.847c0,0.318,0.062,0.582,0.187,0.793
		c0.124,0.211,0.322,0.317,0.594,0.317C75.324,33.985,75.526,33.859,75.638,33.608z"/>
	<path fill="#FFFFFF" d="M77.108,33.376c0.016,0.166,0.056,0.296,0.117,0.384c0.119,0.161,0.32,0.242,0.607,0.242
		c0.174,0,0.324-0.039,0.458-0.121c0.132-0.08,0.194-0.204,0.194-0.375c0-0.128-0.052-0.225-0.157-0.291
		c-0.066-0.043-0.198-0.09-0.394-0.144l-0.369-0.1c-0.236-0.063-0.407-0.134-0.52-0.214c-0.198-0.135-0.297-0.32-0.297-0.563
		c0-0.281,0.093-0.51,0.279-0.684c0.188-0.176,0.441-0.263,0.756-0.263c0.412,0,0.711,0.133,0.895,0.394
		c0.115,0.17,0.17,0.349,0.168,0.543h-0.433c-0.007-0.113-0.043-0.215-0.111-0.309c-0.106-0.132-0.291-0.196-0.556-0.196
		c-0.176,0-0.309,0.036-0.4,0.109c-0.092,0.071-0.137,0.166-0.137,0.286c0,0.128,0.061,0.232,0.18,0.311
		c0.07,0.045,0.171,0.088,0.303,0.122L78,32.59c0.334,0.086,0.556,0.171,0.669,0.254c0.18,0.128,0.268,0.328,0.268,0.605
		c0,0.265-0.094,0.493-0.279,0.688c-0.184,0.193-0.467,0.288-0.846,0.288c-0.408,0-0.697-0.101-0.866-0.301
		c-0.17-0.203-0.261-0.452-0.274-0.748H77.108z"/>
	<path fill="#FFFFFF" d="M82.542,31.41c0.181,0.098,0.315,0.229,0.412,0.385c0.09,0.15,0.15,0.327,0.181,0.527
		c0.026,0.137,0.04,0.357,0.04,0.656h-1.971c0.008,0.305,0.07,0.549,0.192,0.731c0.12,0.185,0.308,0.275,0.56,0.275
		c0.236,0,0.424-0.087,0.564-0.259c0.08-0.102,0.135-0.221,0.168-0.351h0.449c-0.013,0.11-0.053,0.232-0.119,0.366
		c-0.066,0.135-0.142,0.244-0.225,0.328c-0.135,0.149-0.305,0.251-0.508,0.304c-0.109,0.028-0.232,0.043-0.369,0.043
		c-0.336,0-0.619-0.135-0.854-0.405c-0.232-0.27-0.352-0.648-0.352-1.135c0-0.48,0.121-0.869,0.354-1.168
		c0.238-0.299,0.543-0.449,0.921-0.449C82.177,31.26,82.363,31.309,82.542,31.41z M82.706,32.582
		c-0.018-0.219-0.063-0.395-0.127-0.522c-0.124-0.242-0.332-0.36-0.621-0.36c-0.207,0-0.381,0.081-0.521,0.248
		c-0.139,0.166-0.215,0.377-0.223,0.635H82.706z"/>
	<path fill="#FFFFFF" d="M83.751,31.326h0.451v0.424c0.106-0.146,0.203-0.252,0.291-0.319c0.15-0.114,0.322-0.171,0.513-0.171
		c0.214,0,0.39,0.059,0.521,0.176c0.074,0.066,0.145,0.164,0.202,0.297c0.101-0.162,0.22-0.28,0.358-0.358
		c0.135-0.075,0.289-0.114,0.46-0.114c0.364,0,0.61,0.145,0.742,0.435c0.071,0.156,0.106,0.365,0.106,0.63v1.988h-0.473v-2.074
		c0-0.199-0.047-0.336-0.135-0.41c-0.092-0.073-0.199-0.111-0.331-0.111c-0.179,0-0.333,0.065-0.46,0.197
		c-0.129,0.133-0.194,0.353-0.194,0.662v1.736h-0.464v-1.949c0-0.2-0.021-0.35-0.064-0.443c-0.07-0.14-0.198-0.209-0.389-0.209
		c-0.172,0-0.328,0.074-0.469,0.221c-0.142,0.146-0.209,0.412-0.209,0.797v1.584h-0.457V31.326z"/>
	<path fill="#FFFFFF" d="M88.027,31.341h0.448v0.396c0.092-0.137,0.189-0.24,0.3-0.314c0.151-0.111,0.334-0.167,0.54-0.167
		c0.309,0,0.568,0.13,0.785,0.388c0.214,0.26,0.322,0.631,0.322,1.111c0,0.65-0.157,1.115-0.465,1.395
		c-0.197,0.175-0.427,0.264-0.686,0.264c-0.205,0-0.379-0.049-0.517-0.146c-0.082-0.058-0.173-0.152-0.272-0.287v1.522h-0.456
		V31.341z M89.739,33.68c0.145-0.193,0.215-0.488,0.215-0.879c0-0.237-0.03-0.441-0.094-0.613c-0.121-0.327-0.337-0.493-0.65-0.493
		c-0.316,0-0.531,0.175-0.648,0.521c-0.064,0.187-0.096,0.423-0.096,0.709c0,0.23,0.031,0.426,0.096,0.588
		c0.117,0.311,0.334,0.463,0.648,0.463C89.422,33.975,89.601,33.877,89.739,33.68z"/>
	<path fill="#FFFFFF" d="M90.961,31.326h0.433v0.516c0.035-0.1,0.121-0.222,0.261-0.365c0.137-0.145,0.296-0.217,0.478-0.217
		c0,0,0.025,0,0.043,0.002c0.021,0.004,0.055,0.006,0.104,0.012v0.529c-0.027-0.005-0.053-0.008-0.074-0.011
		c-0.023-0.002-0.047-0.002-0.074-0.002c-0.23,0-0.406,0.081-0.529,0.241c-0.123,0.164-0.184,0.352-0.184,0.563v1.718h-0.456V31.326
		z"/>
	<path fill="#FFFFFF" d="M94.347,31.41c0.18,0.098,0.315,0.229,0.409,0.385c0.091,0.15,0.151,0.327,0.183,0.527
		c0.027,0.137,0.039,0.357,0.039,0.656h-1.971c0.008,0.305,0.072,0.549,0.194,0.731c0.118,0.185,0.306,0.275,0.56,0.275
		c0.235,0,0.424-0.087,0.564-0.259c0.079-0.102,0.135-0.221,0.168-0.351h0.445c-0.012,0.11-0.049,0.232-0.115,0.366
		c-0.067,0.135-0.142,0.244-0.223,0.328c-0.139,0.149-0.308,0.251-0.512,0.304c-0.107,0.028-0.23,0.043-0.369,0.043
		c-0.334,0-0.617-0.135-0.852-0.405c-0.234-0.27-0.349-0.648-0.349-1.135c0-0.48,0.116-0.869,0.353-1.168
		c0.234-0.299,0.539-0.449,0.92-0.449C93.983,31.26,94.167,31.309,94.347,31.41z M94.511,32.582
		c-0.018-0.219-0.061-0.395-0.129-0.522c-0.125-0.242-0.33-0.36-0.621-0.36c-0.206,0-0.381,0.081-0.52,0.248
		c-0.141,0.166-0.215,0.377-0.223,0.635H94.511z"/>
	<path fill="#FFFFFF" d="M95.827,33.376c0.012,0.166,0.05,0.296,0.115,0.384c0.117,0.161,0.321,0.242,0.607,0.242
		c0.174,0,0.324-0.039,0.456-0.121c0.13-0.08,0.196-0.204,0.196-0.375c0-0.128-0.053-0.225-0.156-0.291
		c-0.066-0.043-0.2-0.09-0.396-0.144l-0.367-0.1c-0.234-0.063-0.407-0.134-0.52-0.214c-0.199-0.135-0.299-0.32-0.299-0.563
		c0-0.281,0.092-0.51,0.281-0.684c0.188-0.176,0.438-0.263,0.756-0.263c0.413,0,0.71,0.133,0.895,0.394
		c0.113,0.17,0.17,0.349,0.166,0.543h-0.43c-0.01-0.113-0.047-0.215-0.111-0.309c-0.108-0.132-0.293-0.196-0.557-0.196
		c-0.18,0-0.312,0.036-0.4,0.109c-0.092,0.071-0.135,0.166-0.135,0.286c0,0.128,0.057,0.232,0.177,0.311
		c0.07,0.045,0.171,0.088,0.304,0.122l0.307,0.081c0.334,0.086,0.557,0.171,0.67,0.254c0.178,0.128,0.267,0.328,0.267,0.605
		c0,0.265-0.093,0.493-0.276,0.688c-0.188,0.193-0.47,0.288-0.848,0.288c-0.41,0-0.697-0.101-0.867-0.301
		c-0.169-0.203-0.263-0.452-0.273-0.748H95.827z"/>
	<path fill="#FFFFFF" d="M99.597,32.506c0.105-0.016,0.176-0.063,0.211-0.146c0.019-0.045,0.029-0.108,0.029-0.192
		c0-0.171-0.055-0.297-0.164-0.373c-0.111-0.078-0.268-0.119-0.476-0.119c-0.235,0-0.402,0.073-0.503,0.216
		c-0.055,0.079-0.092,0.192-0.109,0.349h-0.424c0.008-0.368,0.115-0.625,0.323-0.77c0.21-0.145,0.452-0.216,0.726-0.216
		c0.317,0,0.576,0.066,0.774,0.2c0.199,0.135,0.297,0.341,0.297,0.625v1.721c0,0.051,0.01,0.094,0.028,0.123
		c0.02,0.033,0.061,0.047,0.123,0.047c0.02,0,0.043,0,0.068-0.004c0.023-0.002,0.052-0.006,0.081-0.012v0.371
		c-0.071,0.021-0.126,0.035-0.163,0.043c-0.037,0.005-0.088,0.006-0.151,0.006c-0.157,0-0.269-0.062-0.342-0.183
		c-0.037-0.065-0.063-0.157-0.08-0.275c-0.091,0.133-0.224,0.249-0.396,0.349c-0.175,0.098-0.367,0.146-0.574,0.146
		c-0.253,0-0.459-0.082-0.616-0.251c-0.161-0.169-0.24-0.378-0.24-0.632c0-0.275,0.078-0.491,0.236-0.643
		c0.155-0.153,0.359-0.246,0.619-0.281L99.597,32.506z M98.64,33.861c0.096,0.082,0.211,0.124,0.34,0.124
		c0.161,0,0.314-0.042,0.465-0.122c0.254-0.135,0.38-0.357,0.38-0.666v-0.403c-0.054,0.038-0.126,0.071-0.212,0.099
		c-0.089,0.025-0.175,0.046-0.26,0.057l-0.274,0.039c-0.165,0.023-0.289,0.061-0.373,0.113c-0.142,0.086-0.211,0.225-0.211,0.418
		C98.494,33.662,98.542,33.777,98.64,33.861z"/>
	<path fill="#FFFFFF" d="M101.04,31.326h0.434v0.516c0.035-0.1,0.121-0.222,0.26-0.365c0.137-0.145,0.297-0.217,0.478-0.217
		c0.008,0,0.022,0,0.04,0.002c0.025,0.004,0.059,0.006,0.105,0.012v0.529c-0.025-0.005-0.051-0.008-0.074-0.011
		c-0.021-0.002-0.047-0.002-0.073-0.002c-0.228,0-0.405,0.081-0.529,0.241c-0.124,0.164-0.183,0.352-0.183,0.563v1.718h-0.457
		V31.326z"/>
	<path fill="#FFFFFF" d="M102.753,30.219h0.463v0.566h-0.463V30.219z M102.753,31.341h0.463v2.972h-0.463V31.341z"/>
	<path fill="#FFFFFF" d="M105.354,32.506c0.105-0.016,0.176-0.063,0.211-0.146c0.021-0.045,0.029-0.108,0.029-0.192
		c0-0.171-0.055-0.297-0.164-0.373c-0.111-0.078-0.27-0.119-0.473-0.119c-0.238,0-0.406,0.073-0.507,0.216
		c-0.055,0.079-0.09,0.192-0.106,0.349h-0.427c0.01-0.368,0.116-0.625,0.325-0.77c0.208-0.145,0.45-0.216,0.725-0.216
		c0.316,0,0.576,0.066,0.777,0.2c0.194,0.135,0.293,0.341,0.293,0.625v1.721c0,0.051,0.01,0.094,0.029,0.123
		c0.021,0.033,0.061,0.047,0.123,0.047c0.021,0,0.044,0,0.068-0.004c0.025-0.002,0.053-0.006,0.08-0.012v0.371
		c-0.069,0.021-0.123,0.035-0.162,0.043c-0.036,0.005-0.086,0.006-0.148,0.006c-0.159,0-0.273-0.062-0.344-0.183
		c-0.037-0.065-0.063-0.157-0.078-0.275c-0.094,0.133-0.227,0.249-0.402,0.349c-0.173,0.098-0.365,0.146-0.572,0.146
		c-0.251,0-0.457-0.082-0.615-0.251s-0.24-0.378-0.24-0.632c0-0.275,0.08-0.491,0.237-0.643c0.155-0.153,0.361-0.246,0.616-0.281
		L105.354,32.506z M104.396,33.861c0.097,0.082,0.212,0.124,0.343,0.124c0.162,0,0.313-0.042,0.463-0.122
		c0.254-0.135,0.381-0.357,0.381-0.666v-0.403c-0.055,0.038-0.127,0.071-0.215,0.099c-0.088,0.025-0.173,0.046-0.257,0.057
		l-0.276,0.039c-0.165,0.023-0.289,0.061-0.373,0.113c-0.138,0.086-0.209,0.225-0.209,0.418
		C104.253,33.662,104.301,33.777,104.396,33.861z"/>
	<path fill="#FFFFFF" d="M106.798,30.219h0.455v4.094h-0.455V30.219z"/>
	<path fill="#FFFFFF" d="M109.607,31.41c0.183,0.098,0.317,0.229,0.413,0.385c0.09,0.15,0.15,0.327,0.178,0.527
		c0.029,0.137,0.04,0.357,0.04,0.656h-1.968c0.008,0.305,0.07,0.549,0.193,0.731c0.121,0.185,0.306,0.275,0.559,0.275
		c0.236,0,0.424-0.087,0.565-0.259c0.077-0.102,0.132-0.221,0.165-0.351h0.451c-0.012,0.11-0.053,0.232-0.119,0.366
		c-0.066,0.135-0.141,0.244-0.223,0.328c-0.137,0.149-0.308,0.251-0.51,0.304c-0.108,0.028-0.23,0.043-0.369,0.043
		c-0.336,0-0.619-0.135-0.851-0.405c-0.235-0.27-0.351-0.648-0.351-1.135c0-0.48,0.117-0.869,0.352-1.168
		c0.233-0.299,0.541-0.449,0.92-0.449C109.244,31.26,109.431,31.309,109.607,31.41z M109.771,32.582
		c-0.018-0.219-0.059-0.395-0.125-0.522c-0.124-0.242-0.332-0.36-0.619-0.36c-0.209,0-0.381,0.081-0.523,0.248
		c-0.139,0.166-0.215,0.377-0.223,0.635H109.771z"/>
	<path fill="#FFFFFF" d="M111.09,33.376c0.012,0.166,0.052,0.296,0.114,0.384c0.119,0.161,0.32,0.242,0.61,0.242
		c0.173,0,0.321-0.039,0.452-0.121c0.133-0.08,0.196-0.204,0.196-0.375c0-0.128-0.05-0.225-0.155-0.291
		c-0.066-0.043-0.197-0.09-0.396-0.144l-0.365-0.1c-0.236-0.063-0.41-0.134-0.522-0.214c-0.196-0.135-0.298-0.32-0.298-0.563
		c0-0.281,0.094-0.51,0.282-0.684c0.187-0.176,0.437-0.263,0.754-0.263c0.413,0,0.713,0.133,0.896,0.394
		c0.113,0.17,0.17,0.349,0.166,0.543h-0.43c-0.008-0.113-0.045-0.215-0.111-0.309c-0.107-0.132-0.293-0.196-0.558-0.196
		c-0.175,0-0.308,0.036-0.399,0.109c-0.09,0.071-0.137,0.166-0.137,0.286c0,0.128,0.061,0.232,0.181,0.311
		c0.067,0.045,0.169,0.088,0.304,0.122l0.305,0.081c0.334,0.086,0.559,0.171,0.67,0.254c0.18,0.128,0.268,0.328,0.268,0.605
		c0,0.265-0.094,0.493-0.277,0.688c-0.185,0.193-0.469,0.288-0.848,0.288c-0.406,0-0.696-0.101-0.865-0.301
		c-0.172-0.203-0.262-0.452-0.275-0.748H111.09z"/>
	<path fill="#FFFFFF" d="M37.585,4.758l0.014-0.016c-0.033-0.022-0.068-0.043-0.103-0.066c-0.113-0.093-0.233-0.175-0.371-0.232
		c-3.706-2.385-8.124-3.787-12.882-3.787c-13.029,0-23.592,10.407-23.592,23.242c0,8.589,4.73,16.081,11.764,20.106l0.01-0.018
		c0.246,0.215,0.569,0.35,0.926,0.35c0.768,0,1.393-0.609,1.393-1.359c0-0.604-0.407-1.107-0.963-1.287l0.004-0.009
		C7.567,38.124,3.378,31.496,3.378,23.899c0-11.35,9.344-20.553,20.865-20.553c4.261,0,8.225,1.261,11.525,3.421l0.008-0.009
		c0.226,0.161,0.507,0.261,0.811,0.261c0.762,0,1.383-0.6,1.383-1.34C37.97,5.322,37.821,4.997,37.585,4.758z"/>
	<path fill="#FFFFFF" d="M33.391,38.252c0-0.789-0.649-1.43-1.448-1.43c-0.346,0-0.656,0.125-0.906,0.322
		c-2.041,1.018-4.345,1.597-6.793,1.597c-8.319,0-15.064-6.644-15.064-14.842c0-8.196,6.745-14.84,15.064-14.84
		c0.248,0,0.497,0.007,0.742,0.019l0.002-0.025c0.041,0.004,0.076,0.012,0.116,0.012c0.782,0,1.421-0.625,1.421-1.391
		c0-0.729-0.573-1.319-1.299-1.381l0.002-0.005c-0.032-0.002-0.065-0.002-0.096-0.004c-0.01,0-0.02-0.002-0.028-0.002h-0.013
		c-0.282-0.012-0.562-0.022-0.848-0.022c-9.89,0-17.906,7.898-17.906,17.641c0,9.745,8.017,17.644,17.906,17.644
		c2.945,0,5.723-0.705,8.172-1.945l-0.002-0.004C32.979,39.4,33.391,38.873,33.391,38.252z"/>
</g>
</svg>
