<?xml version="1.0" encoding="utf-8"?>
<!-- Generator: Adobe Illustrator 16.0.0, SVG Export Plug-In . SVG Version: 6.00 Build 0)  -->
<!DOCTYPE svg PUBLIC "-//W3C//DTD SVG 1.1//EN" "http://www.w3.org/Graphics/SVG/1.1/DTD/svg11.dtd">
<svg version="1.1" id="Capa_1" xmlns="http://www.w3.org/2000/svg" xmlns:xlink="http://www.w3.org/1999/xlink" x="0px" y="0px"
	 width="440.674px" height="114.451px" viewBox="0 0 440.674 114.451" enable-background="new 0 0 440.674 114.451"
	 xml:space="preserve">
<g opacity="0.2">
	<g>
		<defs>
			<rect id="SVGID_1_" width="440.674" height="114.451"/>
		</defs>
		<clipPath id="SVGID_2_">
			<use xlink:href="#SVGID_1_"  overflow="visible"/>
		</clipPath>
		<g opacity="0.5" clip-path="url(#SVGID_2_)">
			<g>
				<path fill="#FFFFFF" d="M91.094,106.139c-33.51,0-55.227-4.016-68.486-7.967C3.275,92.41-2.809,85.506-2.869,85.436l0.793-0.254
					c0.059,0.066,6.053,6.842,25.164,12.521c17.666,5.25,50.457,10.607,106.369,6.328c38.486-2.943,64.615-10.158,89.889-17.135
					c46.674-12.889,94.938-26.213,222.957-15.408l-0.125,0.545C314.414,61.25,266.27,74.543,219.715,87.396
					c-25.336,6.992-51.527,14.229-90.146,17.182C115.293,105.67,102.504,106.139,91.094,106.139L91.094,106.139z"/>
			</g>
			<g>
				<path fill="#FFFFFF" d="M98.801,106.543c-36.666,0-60.406-4.781-74.789-9.4C3.805,90.652-2.848,83.045-2.912,82.973l0.797-0.258
					c0.064,0.076,6.623,7.559,26.623,13.967c18.479,5.92,52.533,12.107,109.83,7.957c39.66-2.912,65.121-10.357,92.078-18.246
					c45.873-13.422,93.313-27.297,216.01-17.297l-0.121,0.547c-122.432-9.982-169.746,3.859-215.504,17.246
					c-27.023,7.906-52.551,15.377-92.359,18.295C121.395,106.131,109.539,106.543,98.801,106.543L98.801,106.543z"/>
			</g>
			<g>
				<path fill="#FFFFFF" d="M106.209,106.975c-39.631,0-65.32-5.566-80.789-10.859C4.33,88.898-2.879,80.588-2.951,80.506
					l0.795-0.256c0.07,0.082,7.193,8.273,28.08,15.408c19.297,6.592,54.619,13.605,113.291,9.586
					c40.797-2.867,66.715-10.891,94.152-19.391c45.043-13.947,91.615-28.373,209.178-19.146l-0.117,0.545
					c-117.289-9.207-163.734,5.182-208.656,19.094c-27.512,8.518-53.496,16.566-94.457,19.445
					C127.334,106.611,116.316,106.975,106.209,106.975L106.209,106.975z"/>
			</g>
			<g>
				<path fill="#FFFFFF" d="M113.373,107.432c-42.447,0-70.02-6.365-86.547-12.344C4.857,87.139-2.916,78.131-2.992,78.039
					l0.799-0.252c0.074,0.088,7.762,8.986,29.539,16.848c20.113,7.262,56.695,15.105,116.75,11.215
					c41.9-2.814,68.24-11.439,96.125-20.574c44.174-14.471,89.857-29.434,202.441-20.961l-0.107,0.545
					c-112.303-8.449-157.855,6.471-201.91,20.9c-27.965,9.162-54.377,17.811-96.453,20.639
					C133.145,107.111,122.881,107.432,113.373,107.432L113.373,107.432z"/>
			</g>
			<g>
				<path fill="#FFFFFF" d="M119.873,107.945c-44.857,0-74.117-7.164-91.625-13.824C5.395,85.428-2.955,75.67-3.031,75.572
					l0.795-0.254c0.082,0.1,8.346,9.746,31.014,18.355c20.932,7.955,58.771,16.631,120.193,12.779
					c43.068-2.695,69.83-11.967,98.164-21.781c43.27-14.984,88.004-30.48,195.646-22.746l-0.105,0.543
					c-107.344-7.711-151.955,7.738-195.102,22.684c-28.416,9.842-55.258,19.141-98.51,21.85
					C138.676,107.652,128.951,107.945,119.873,107.945L119.873,107.945z"/>
			</g>
			<g>
				<path fill="#FFFFFF" d="M126.582,108.443c-47.385,0-78.404-7.986-96.928-15.34C5.924,83.68-2.986,73.213-3.074,73.105
					l0.797-0.248c0.088,0.102,8.918,10.461,32.475,19.807c21.746,8.625,60.854,18.127,123.654,14.395
					c44.127-2.619,71.256-12.541,99.973-23.045C296.172,68.525,339.949,52.51,442.9,59.535l-0.102,0.547
					c-102.643-7.006-146.295,8.961-188.512,24.404c-28.809,10.533-56.021,20.49-100.35,23.121
					C144.27,108.182,135.154,108.443,126.582,108.443L126.582,108.443z"/>
			</g>
			<g>
				<path fill="#FFFFFF" d="M133.164,108.953c-49.828,0-82.576-8.818-102.1-16.869C6.455,81.928-3.021,70.752-3.115,70.641
					l0.801-0.248c0.092,0.107,9.49,11.182,33.934,21.254c22.564,9.299,62.938,19.631,127.107,16.021
					c45.174-2.541,72.637-13.139,101.711-24.361c41.4-15.977,84.215-32.498,182.584-26.166l-0.096,0.551
					c-98.061-6.316-140.74,10.152-182.01,26.08c-29.168,11.258-56.717,21.893-102.105,24.441
					C149.803,108.723,141.254,108.953,133.164,108.953L133.164,108.953z"/>
			</g>
			<g>
				<path fill="#FFFFFF" d="M139.631,109.475c-52.182,0-86.645-9.66-107.15-18.416C6.982,80.176-3.059,68.293-3.156,68.174
					l0.799-0.248c0.1,0.117,10.063,11.898,35.395,22.703c23.383,9.971,65.006,21.125,130.572,17.645
					c46.199-2.459,73.971-13.756,103.371-25.723c40.432-16.451,82.238-33.463,176.156-27.799l-0.086,0.547
					c-93.607-5.645-135.275,11.313-175.572,27.709c-29.498,12.008-57.365,23.344-103.793,25.811
					C155.281,109.266,147.266,109.475,139.631,109.475L139.631,109.475z"/>
			</g>
			<g>
				<path fill="#FFFFFF" d="M146.008,110c-54.49,0-90.629-10.508-112.119-19.967C7.514,78.424-3.094,65.834-3.195,65.709
					l0.797-0.248c0.105,0.123,10.637,12.611,36.854,24.145c24.199,10.643,67.098,22.627,134.029,19.271
					c47.219-2.367,75.275-14.395,104.98-27.131c39.436-16.91,80.219-34.393,169.791-29.385l-0.078,0.549
					c-89.258-4.992-129.896,12.432-169.199,29.285c-29.805,12.781-57.957,24.852-105.418,27.229
					C160.721,109.82,153.199,110,146.008,110L146.008,110z"/>
			</g>
			<g>
				<path fill="#FFFFFF" d="M152.307,110.537c-56.74,0-94.545-11.365-117.008-21.531C8.043,76.668-3.129,63.379-3.238,63.244
					l0.801-0.248C-2.328,63.127,8.768,76.32,35.875,88.58c25.014,11.314,69.168,24.125,137.488,20.902
					c48.234-2.273,76.551-15.061,106.533-28.602c38.416-17.348,78.135-35.285,163.482-30.91l-0.078,0.549
					c-84.996-4.355-124.59,13.518-162.873,30.807c-30.086,13.586-58.506,26.418-106.994,28.703
					C166.121,110.375,159.072,110.537,152.307,110.537L152.307,110.537z"/>
			</g>
			<g>
				<path fill="#FFFFFF" d="M158.541,111.08c-58.938,0-98.396-12.229-121.83-23.107C8.572,74.91-3.164,60.918-3.279,60.777
					l0.801-0.248c0.115,0.141,11.777,14.035,39.773,27.025c25.832,11.984,71.248,25.621,140.949,22.535
					c49.244-2.182,77.805-15.754,108.039-30.127c37.377-17.766,76.014-36.139,157.211-32.385l-0.066,0.551
					c-80.84-3.736-119.352,14.566-156.59,32.268c-30.348,14.426-59.012,28.047-108.529,30.24
					C171.49,110.939,164.898,111.08,158.541,111.08L158.541,111.08z"/>
			</g>
			<g>
				<path fill="#FFFFFF" d="M164.539,111.635c-24.516,0-47.578-2.09-68.777-6.24c-21.203-4.148-40.594-10.357-57.635-18.453
					C9.102,73.152-3.199,58.461-3.32,58.314l0.801-0.25c0.121,0.146,12.352,14.746,41.229,28.457
					c26.652,12.654,73.34,27.121,144.41,24.172c50.266-2.082,79.041-16.475,109.51-31.715
					c36.314-18.16,73.867-36.934,150.984-33.791l-0.059,0.551c-76.771-3.137-114.178,15.574-150.357,33.668
					c-30.584,15.293-59.467,29.74-110.016,31.836C176.885,111.506,170.666,111.635,164.539,111.635L164.539,111.635z"/>
			</g>
			<g>
				<path fill="#FFFFFF" d="M171.133,112.172c-25.793,0-50.078-2.293-72.402-6.838c-21.723-4.424-41.641-10.98-59.199-19.492
					C9.627,71.352-3.234,56-3.359,55.846l0.801-0.248c0.123,0.154,12.916,15.412,42.678,29.83
					C67.586,98.73,115.543,114.02,188,111.299c51.242-2.043,80.203-17.268,110.867-33.385
					c35.242-18.523,71.688-37.676,144.867-35.117l-0.055,0.551c-72.811-2.551-109.119,16.531-144.227,34.984
					c-30.779,16.176-59.855,31.461-111.396,33.518C182.348,112.064,176.705,112.172,171.133,112.172L171.133,112.172z"/>
			</g>
			<g>
				<path fill="#FFFFFF" d="M177.141,112.734c-26.846,0-52.156-2.473-75.434-7.383c-22.242-4.688-42.686-11.6-60.762-20.535
					C10.156,69.596-3.268,53.541-3.4,53.381l0.801-0.248c0.129,0.16,13.492,16.123,44.141,31.271
					c28.281,13.973,77.486,30.088,151.336,27.5c52.287-1.93,81.436-18.043,112.289-35.105
					c34.131-18.867,69.414-38.379,138.682-36.393l-0.039,0.549c-68.9-1.98-104.045,17.457-138.043,36.252
					c-29.611,16.373-60.232,33.303-112.838,35.248C187.613,112.641,182.348,112.734,177.141,112.734L177.141,112.734z"/>
			</g>
			<g>
				<path fill="#FFFFFF" d="M183.098,113.301c-27.877,0-54.189-2.656-78.412-7.93c-22.76-4.955-43.73-12.217-62.328-21.582
					C10.688,67.842-3.303,51.082-3.443,50.916l0.801-0.248c0.141,0.166,14.066,16.838,45.604,32.713
					c29.1,14.645,79.576,31.59,154.795,29.131c53.352-1.814,84.02-19.65,113.68-36.896c32.996-19.189,67.123-39.029,132.529-37.602
					l-0.031,0.551c-65.033-1.42-99.021,18.34-131.879,37.445c-29.779,17.32-60.572,35.225-114.25,37.051
					C192.859,113.221,187.951,113.301,183.098,113.301L183.098,113.301z"/>
			</g>
			<g>
				<path fill="#FFFFFF" d="M189.004,113.875c-28.883,0-56.188-2.848-81.342-8.488c-23.277-5.221-44.771-12.832-63.889-22.625
					C11.221,66.088-3.338,48.625-3.482,48.451l0.803-0.25c0.143,0.176,14.633,17.553,47.061,34.154
					c29.912,15.318,81.641,33.09,158.252,30.762c54.432-1.691,85.244-20.543,115.045-38.77
					c31.842-19.475,64.762-39.596,126.402-38.723l-0.021,0.549c-61.271-0.881-94.043,19.17-125.744,38.561
					c-29.922,18.305-60.863,37.229-115.633,38.934C198.086,113.807,193.521,113.875,189.004,113.875L189.004,113.875z"/>
			</g>
			<g>
				<path fill="#FFFFFF" d="M194.865,114.451c-29.869,0-58.148-3.035-84.223-9.047c-23.799-5.482-45.816-13.445-65.453-23.666
					C11.752,64.334-3.373,46.164-3.523,45.982l0.803-0.244c0.148,0.18,15.209,18.266,48.52,35.596
					c30.73,15.986,83.73,34.586,161.715,32.389c55.529-1.564,86.469-21.473,116.391-40.727
					c30.385-19.553,61.797-39.766,118.773-39.766c0.506,0,1.01,0,1.518,0.004l-0.008,0.549
					c-57.557-0.348-87.705,19.047-119.639,39.59c-30.037,19.334-61.105,39.324-116.998,40.898
					C203.291,114.391,199.064,114.451,194.865,114.451L194.865,114.451z"/>
			</g>
		</g>
	</g>
	<path fill="#FFFFFF" d="M129.553,104.541C60.732,92.256,12.775,70.887,0,64.781v1.664c7.111,3.354,22.545,10.215,44.654,17.748
		c22.055,7.516,50.746,15.695,84.387,21.703c47.445,8.48,95.766,10.346,142.777,6.963c57.701-4.16,114.643-18.088,168.467-39.99
		l0.389-0.654C317.633,122.855,203.613,117.768,129.553,104.541z"/>
	<path fill="#FFFFFF" d="M311.121,65.031C379.941,39.318,427.9,8.595,440.674,0v1.661c-7.111,4.745-22.543,14.613-44.652,26.462
		c-22.057,11.816-50.748,25.59-84.389,38.164c-47.447,17.732-95.766,29.023-142.777,34.809
		c-57.701,7.098-114.645,4.275-168.469-7.129L0,93.389C123.039,120.031,237.061,92.701,311.121,65.031z"/>
</g>
</svg>
