<?xml version="1.0" encoding="utf-8"?>
<!-- Generator: Adobe Illustrator 16.0.0, SVG Export Plug-In . SVG Version: 6.00 Build 0)  -->
<!DOCTYPE svg PUBLIC "-//W3C//DTD SVG 1.1//EN" "http://www.w3.org/Graphics/SVG/1.1/DTD/svg11.dtd">
<svg version="1.1" id="Capa_1" xmlns="http://www.w3.org/2000/svg" xmlns:xlink="http://www.w3.org/1999/xlink" x="0px" y="0px"
	 width="238px" height="90px" viewBox="0 0 238 90" enable-background="new 0 0 238 90" xml:space="preserve">
<g>
	<path fill-rule="evenodd" clip-rule="evenodd" d="M49.713,46.366c-0.011,6.555-4.565,10.124-9.531,8.591
		c-2.665-0.823-4.945-3.701-4.872-6.637c0.044-1.769,0.287-3.697,1.062-5.243c1.096-2.184,2.676-4.151,4.223-6.073
		c0.964-1.198,2.109-1.267,3.292-0.273C47.226,39.536,49.429,43.007,49.713,46.366z M42.768,41.364
		c-1.856,1.98-2.928,4.066-3.118,5.788c-0.209,1.891,0.964,3.613,2.548,3.74c1.729,0.139,3.142-1.332,3.175-3.338
		c0.006-0.392,0-0.829-0.159-1.172C44.458,44.755,43.647,43.154,42.768,41.364z"/>
	<g>
		<path fill-rule="evenodd" clip-rule="evenodd" d="M42.358,22.422c2.708-2.371,5.775-4.107,9.26-5.032
			c12.375-3.284,24.673,4.229,27.584,16.883c2.019,8.777-0.155,16.786-4.724,24.276c-4.925,8.076-11.816,14.245-19.518,19.547
			c-3.063,2.107-6.308,3.956-9.505,5.863c-2.023,1.207-4.141,1.267-6.189,0.046c-8.607-5.127-16.869-10.709-23.53-18.33
			c-5.374-6.149-9.237-13.053-10.763-21.188c-2.37-12.652,4.818-24.52,16.94-27.457c7.403-1.793,14.028,0.156,19.883,4.92
			C41.968,22.091,42.137,22.235,42.358,22.422z M38.951,25.324c-4.544-3.701-9.737-5.437-15.644-4.096
			c-8.776,1.993-15.624,9.885-14.075,21.61c0.861,6.514,3.73,12.158,7.679,17.297c6.565,8.546,15.279,14.48,24.381,19.933
			c0.777,0.465,1.473,0.353,2.242-0.07c5.266-2.89,10.271-6.169,14.887-10.019c5.811-4.845,10.939-10.28,14.194-17.223
			c3.332-7.104,4.249-14.368,0.75-21.682c-5.124-10.712-19.012-13.342-27.383-5.824c2.646,3.763,5.486,7.357,7.835,11.249
			c3.037,5.031,4.426,10.523,2.989,16.446c-2.393,9.856-13.014,14.586-21.497,9.909c-5.316-2.93-7.426-8.087-7.676-13.931
			c-0.224-5.241,1.798-9.909,4.597-14.204C34.309,31.533,36.652,28.518,38.951,25.324z M42.382,28.54
			c-3.03,3.046-7.395,9.559-8.896,13.277c-1.484,3.674-2.032,7.384-0.664,11.257c3.197,9.051,12.335,8.44,16.575,4.305
			c3.25-3.17,4.063-7.157,3.306-11.39C51.441,38.937,47.108,33.609,42.382,28.54z"/>
		<g>
			<path d="M115.273,21.484h11.406l-11.406,34.657h-12.729L91.139,21.484h11.405l6.365,22.621L115.273,21.484z"/>
			<path d="M136.445,5.1c1.891,0,3.444,0.578,4.663,1.733c1.218,1.156,1.827,2.615,1.827,4.379c0,1.807-0.608,3.288-1.827,4.443
				c-1.219,1.156-2.772,1.733-4.663,1.733c-1.85,0-3.393-0.587-4.632-1.765c-1.24-1.175-1.858-2.646-1.858-4.411
				c0-1.764,0.618-3.223,1.858-4.379C133.052,5.678,134.595,5.1,136.445,5.1z M131.088,56.141V21.484h10.713v34.657H131.088z"/>
			<path d="M174.378,45.303l1.829,8.632c-1.094,0.756-2.669,1.45-4.727,2.08c-2.059,0.629-4.096,0.945-6.112,0.945
				c-3.739,0-6.88-1.166-9.42-3.497c-2.542-2.331-3.813-5.913-3.813-10.744V31.565h-5.923V21.484h5.923v-7.121l10.713-2.332v9.453
				h11.657v10.082h-11.657v10.523c0,3.277,1.471,4.915,4.412,4.915C168.435,47.004,170.807,46.437,174.378,45.303z"/>
			<path d="M204.499,21.484h10.712l-0.064,34.657h-10.711v-3.718c-2.479,3.024-5.733,4.537-9.768,4.537
				c-4.454,0-8.171-1.701-11.153-5.104c-2.983-3.402-4.475-7.75-4.475-13.044c0-5.292,1.502-9.641,4.506-13.043
				c3.003-3.403,6.688-5.104,11.059-5.104c4.159,0,7.456,1.575,9.894,4.727V21.484z M191.958,44.578
				c1.386,1.449,3.13,2.174,5.23,2.174c2.1,0,3.843-0.725,5.23-2.174s2.08-3.372,2.08-5.767c0-2.351-0.692-4.263-2.08-5.733
				c-1.387-1.47-3.13-2.206-5.23-2.206c-2.1,0-3.845,0.735-5.23,2.206c-1.385,1.471-2.08,3.382-2.08,5.733
				C189.879,41.207,190.573,43.129,191.958,44.578z"/>
			<path d="M221.511,56.141V7.621h10.713v48.521H221.511z"/>
		</g>
		<g>
			<path d="M101.153,66.811h3.586V81.72h-4.071l-5.546-9.393l0.295,3.152v6.241h-3.585V66.811h4.07l5.525,9.392l-0.275-3.152V66.811
				z"/>
			<path d="M118.067,81.72l-1.055-3.088h-5.525l-1.055,3.088h-3.796l5.357-14.909h4.513l5.357,14.909H118.067z M112.668,75.182
				h3.163l-1.582-4.644L112.668,75.182z"/>
			<path d="M132.85,66.811v3.45h-4.027V81.72h-3.585V70.261h-4.007v-3.45H132.85z"/>
			<path d="M143.648,66.811h3.649l-0.022,8.817c0,2.045-0.572,3.616-1.719,4.718c-1.146,1.101-2.639,1.651-4.482,1.651
				c-1.84,0-3.334-0.55-4.479-1.651c-1.146-1.102-1.721-2.673-1.721-4.718l-0.02-8.817h3.648v8.605c0,2.086,0.858,3.13,2.572,3.13
				c1.716,0,2.574-1.044,2.574-3.13V66.811z"/>
			<path d="M158.326,81.72l-3.479-5.175h-1.118v5.175h-3.586V66.811h6.58c1.562,0,2.795,0.444,3.702,1.331
				c0.907,0.888,1.361,2.105,1.361,3.653c0,2.286-0.984,3.756-2.952,4.408l3.879,5.517H158.326z M158.157,71.838
				c0-1.052-0.612-1.577-1.834-1.577h-2.595v3.11h2.595C157.545,73.371,158.157,72.86,158.157,71.838z"/>
			<path d="M175.197,81.72l-1.055-3.088h-5.525l-1.054,3.088h-3.795l5.355-14.909h4.514l5.356,14.909H175.197z M169.798,75.182
				h3.163l-1.582-4.644L169.798,75.182z"/>
			<path d="M184.582,78.27h5.989v3.45h-9.574V66.811h3.585V78.27z"/>
			<path d="M202.74,70.261h-6.581v2.215h5.989v3.45h-5.989v2.343h6.581v3.45h-10.166V66.811h10.166V70.261z"/>
			<path d="M209.171,78.27h6.601v3.45h-11.135v-3.45l6.559-8.009h-6.222v-3.45h10.734l0.02,3.45L209.171,78.27z"/>
			<path d="M228.467,81.72l-1.053-3.088h-5.526l-1.055,3.088h-3.796l5.356-14.909h4.514l5.356,14.909H228.467z M223.068,75.182
				h3.163l-1.581-4.644L223.068,75.182z"/>
		</g>
	</g>
</g>
</svg>
