<?xml version="1.0" encoding="utf-8"?>
<!-- Generator: Adobe Illustrator 16.0.0, SVG Export Plug-In . SVG Version: 6.00 Build 0)  -->
<!DOCTYPE svg PUBLIC "-//W3C//DTD SVG 1.1//EN" "http://www.w3.org/Graphics/SVG/1.1/DTD/svg11.dtd">
<svg version="1.1" id="Capa_1" xmlns="http://www.w3.org/2000/svg" xmlns:xlink="http://www.w3.org/1999/xlink" x="0px" y="0px"
	 width="146.523px" height="25px" viewBox="0 0 146.523 25" enable-background="new 0 0 146.523 25" xml:space="preserve">
<g>
	<g opacity="0.5">
		<path fill="#EEEFF1" d="M5.981,7.148c0-0.559-0.125-1.037-0.374-1.433S4.966,5.123,4.431,5.123c-0.269,0-0.511,0.048-0.73,0.146
			C3.481,5.366,3.28,5.555,3.099,5.834c-0.183,0.28-0.326,0.694-0.43,1.241C2.565,7.623,2.515,8.323,2.515,9.174
			c0,0.474,0.015,0.903,0.045,1.286c0.03,0.384,0.104,0.776,0.219,1.177c0.115,0.402,0.305,0.73,0.566,0.986
			s0.604,0.383,1.031,0.383c0.316,0,0.58-0.072,0.793-0.219s0.378-0.34,0.493-0.584c0.115-0.243,0.198-0.505,0.246-0.785
			c0.049-0.279,0.073-0.565,0.073-0.857h1.533c0,0.426-0.059,0.849-0.174,1.269s-0.298,0.81-0.547,1.168
			c-0.25,0.358-0.581,0.651-0.995,0.876c-0.413,0.225-0.913,0.338-1.497,0.338c-1.18,0-2.04-0.411-2.582-1.232
			c-0.541-0.821-0.812-2.083-0.812-3.787c0-0.705,0.046-1.356,0.137-1.953s0.259-1.147,0.502-1.651
			c0.243-0.505,0.599-0.91,1.067-1.214s1.062-0.456,1.779-0.456c0.621,0,1.141,0.106,1.561,0.319
			c0.42,0.213,0.742,0.487,0.967,0.822c0.226,0.334,0.381,0.681,0.465,1.04c0.086,0.359,0.129,0.709,0.129,1.049H5.981z"/>
		<path fill="#EEEFF1" d="M8.792,7.039C8.901,6.431,9.09,5.893,9.358,5.424c0.267-0.468,0.629-0.836,1.085-1.104
			s1.024-0.401,1.707-0.401c0.681,0,1.253,0.134,1.715,0.401s0.824,0.636,1.086,1.104c0.261,0.469,0.447,1.007,0.557,1.615
			c0.108,0.608,0.164,1.284,0.164,2.025c0,0.743-0.056,1.417-0.164,2.026c-0.109,0.608-0.298,1.147-0.565,1.615
			c-0.268,0.469-0.63,0.836-1.086,1.104s-1.025,0.402-1.706,0.402c-0.683,0-1.254-0.135-1.716-0.402
			c-0.463-0.268-0.824-0.635-1.086-1.104c-0.262-0.468-0.447-1.007-0.557-1.615S8.628,9.807,8.628,9.064
			C8.628,8.323,8.683,7.647,8.792,7.039z M13.09,12.706c0.261-0.201,0.462-0.48,0.603-0.84c0.139-0.358,0.236-0.769,0.292-1.231
			c0.054-0.462,0.082-0.986,0.082-1.57s-0.028-1.107-0.082-1.569c-0.056-0.462-0.153-0.873-0.292-1.232
			c-0.141-0.359-0.338-0.639-0.594-0.839s-0.584-0.301-0.985-0.301c-0.376,0-0.69,0.104-0.94,0.31
			c-0.249,0.207-0.44,0.487-0.574,0.839c-0.134,0.353-0.229,0.76-0.283,1.223s-0.082,0.985-0.082,1.569
			c0,0.572,0.027,1.092,0.082,1.561c0.055,0.469,0.149,0.879,0.283,1.232c0.134,0.353,0.325,0.633,0.574,0.839
			c0.25,0.207,0.564,0.311,0.94,0.311C12.503,13.006,12.828,12.907,13.09,12.706z"/>
		<path fill="#EEEFF1" d="M17.205,4.174h1.46v1.149H18.7c0.195-0.438,0.515-0.781,0.959-1.031c0.443-0.249,0.915-0.374,1.414-0.374
			c0.609,0,1.092,0.1,1.451,0.301c0.357,0.201,0.617,0.456,0.775,0.767s0.256,0.624,0.292,0.94c0.037,0.316,0.056,0.682,0.056,1.095
			v6.935h-1.534V7.203c0-0.255-0.012-0.486-0.036-0.693s-0.082-0.408-0.174-0.603c-0.09-0.194-0.236-0.356-0.438-0.483
			s-0.465-0.191-0.794-0.191c-0.487,0-0.931,0.164-1.332,0.493c-0.401,0.328-0.603,0.821-0.603,1.478v6.752h-1.532V4.174z"/>
		<path fill="#EEEFF1" d="M26.11,1.327h1.532v2.847h1.697v1.205h-1.697v6.278c0,0.401,0.07,0.684,0.21,0.848
			c0.141,0.164,0.404,0.247,0.794,0.247c0.171,0,0.358-0.013,0.565-0.037c0.062-0.012,0.098-0.019,0.11-0.019v1.26
			c-0.401,0.072-0.815,0.109-1.241,0.109c-0.754,0-1.271-0.155-1.551-0.465c-0.281-0.311-0.42-0.801-0.42-1.47V5.378h-1.424V4.174
			h1.424V1.327z"/>
		<path fill="#EEEFF1" d="M30.38,4.174h1.533v1.46h0.037c0.255-0.535,0.547-0.955,0.876-1.259c0.328-0.304,0.741-0.456,1.24-0.456
			c0.304,0,0.53,0.037,0.676,0.109v1.497c-0.024,0-0.062-0.006-0.109-0.018c-0.22-0.037-0.456-0.055-0.712-0.055
			c-0.207,0-0.427,0.046-0.657,0.137c-0.231,0.091-0.45,0.234-0.657,0.429s-0.374,0.441-0.502,0.739
			c-0.128,0.298-0.191,0.636-0.191,1.013v6.187H30.38V4.174z"/>
		<path fill="#EEEFF1" d="M35.472,7.039c0.109-0.608,0.299-1.146,0.566-1.615c0.268-0.468,0.629-0.836,1.085-1.104
			c0.457-0.268,1.025-0.401,1.707-0.401c0.681,0,1.253,0.134,1.715,0.401c0.463,0.268,0.823,0.636,1.086,1.104
			c0.262,0.469,0.447,1.007,0.558,1.615c0.108,0.608,0.164,1.284,0.164,2.025c0,0.743-0.056,1.417-0.164,2.026
			c-0.11,0.608-0.299,1.147-0.566,1.615c-0.268,0.469-0.63,0.836-1.086,1.104s-1.025,0.402-1.706,0.402
			c-0.682,0-1.254-0.135-1.716-0.402c-0.463-0.268-0.824-0.635-1.086-1.104c-0.262-0.468-0.447-1.007-0.557-1.615
			s-0.164-1.283-0.164-2.026C35.308,8.323,35.362,7.647,35.472,7.039z M39.771,12.706c0.261-0.201,0.461-0.48,0.602-0.84
			c0.14-0.358,0.236-0.769,0.292-1.231c0.054-0.462,0.082-0.986,0.082-1.57s-0.028-1.107-0.082-1.569
			c-0.056-0.462-0.152-0.873-0.292-1.232c-0.141-0.359-0.338-0.639-0.594-0.839c-0.255-0.201-0.584-0.301-0.985-0.301
			c-0.377,0-0.69,0.104-0.94,0.31c-0.248,0.207-0.44,0.487-0.574,0.839c-0.133,0.353-0.229,0.76-0.282,1.223
			c-0.056,0.462-0.082,0.985-0.082,1.569c0,0.572,0.026,1.092,0.082,1.561c0.054,0.469,0.149,0.879,0.282,1.232
			c0.134,0.353,0.326,0.633,0.574,0.839c0.25,0.207,0.563,0.311,0.94,0.311C39.183,13.006,39.508,12.907,39.771,12.706z"/>
		<path fill="#EEEFF1" d="M43.976,0.925h1.533v13.03h-1.533V0.925z"/>
		<path fill="#EEEFF1" d="M48.886,9.247c0,0.536,0.011,0.992,0.035,1.369c0.024,0.377,0.098,0.755,0.219,1.132
			c0.123,0.377,0.313,0.681,0.576,0.912c0.261,0.231,0.61,0.347,1.049,0.347c0.34,0,0.623-0.078,0.849-0.236
			c0.225-0.158,0.396-0.354,0.511-0.584s0.194-0.472,0.237-0.721c0.042-0.249,0.064-0.489,0.064-0.721h1.532
			c0,0.304-0.052,0.651-0.154,1.04c-0.104,0.39-0.277,0.77-0.521,1.141c-0.244,0.371-0.581,0.679-1.013,0.922
			c-0.433,0.243-0.965,0.365-1.597,0.365c-1.181,0-2.042-0.411-2.583-1.232s-0.812-2.083-0.812-3.787
			c0-0.705,0.045-1.356,0.137-1.953c0.091-0.596,0.259-1.147,0.501-1.651c0.244-0.505,0.6-0.91,1.068-1.214
			c0.467-0.304,1.062-0.456,1.779-0.456c0.705,0,1.28,0.137,1.725,0.411c0.443,0.273,0.777,0.638,1.003,1.095
			s0.372,0.943,0.438,1.46c0.066,0.518,0.101,1.098,0.101,1.743v0.621H48.886z M52.426,8.042V7.513c0-0.304-0.028-0.596-0.082-0.876
			c-0.056-0.279-0.146-0.532-0.274-0.757c-0.128-0.226-0.305-0.408-0.529-0.548c-0.225-0.14-0.496-0.209-0.813-0.209
			c-0.377,0-0.687,0.097-0.93,0.292c-0.244,0.195-0.427,0.432-0.549,0.712c-0.121,0.28-0.203,0.557-0.246,0.831
			c-0.042,0.273-0.063,0.514-0.063,0.721v0.365H52.426z"/>
		<path fill="#EEEFF1" d="M55.71,4.174h1.533v1.46h0.037c0.254-0.535,0.547-0.955,0.875-1.259c0.329-0.304,0.742-0.456,1.241-0.456
			c0.304,0,0.529,0.037,0.676,0.109v1.497c-0.025,0-0.062-0.006-0.11-0.018c-0.219-0.037-0.456-0.055-0.711-0.055
			c-0.207,0-0.427,0.046-0.657,0.137c-0.231,0.091-0.45,0.234-0.657,0.429s-0.374,0.441-0.502,0.739
			c-0.128,0.298-0.191,0.636-0.191,1.013v6.187H55.71V4.174z"/>
		<path fill="#EEEFF1" d="M60.107,12.021h1.679v1.935h-1.679V12.021z"/>
		<path fill="#EEEFF1" d="M68.795,7.148c0-0.559-0.126-1.037-0.374-1.433c-0.25-0.396-0.643-0.593-1.178-0.593
			c-0.268,0-0.511,0.048-0.73,0.146c-0.218,0.097-0.419,0.286-0.602,0.565s-0.326,0.694-0.43,1.241
			c-0.103,0.548-0.154,1.248-0.154,2.099c0,0.474,0.016,0.903,0.046,1.286c0.029,0.384,0.103,0.776,0.219,1.177
			c0.115,0.402,0.304,0.73,0.565,0.986s0.605,0.383,1.031,0.383c0.316,0,0.581-0.072,0.794-0.219
			c0.212-0.146,0.377-0.34,0.493-0.584c0.115-0.243,0.197-0.505,0.246-0.785c0.049-0.279,0.073-0.565,0.073-0.857h1.532
			c0,0.426-0.058,0.849-0.174,1.269c-0.115,0.42-0.297,0.81-0.547,1.168s-0.58,0.651-0.994,0.876s-0.913,0.338-1.497,0.338
			c-1.181,0-2.041-0.411-2.583-1.232c-0.54-0.821-0.811-2.083-0.811-3.787c0-0.705,0.045-1.356,0.136-1.953
			c0.092-0.596,0.259-1.147,0.502-1.651c0.243-0.505,0.6-0.91,1.068-1.214c0.468-0.304,1.061-0.456,1.779-0.456
			c0.62,0,1.141,0.106,1.56,0.319c0.42,0.213,0.742,0.487,0.967,0.822c0.226,0.334,0.381,0.681,0.467,1.04
			c0.084,0.359,0.127,0.709,0.127,1.049H68.795z"/>
		<path fill="#EEEFF1" d="M71.605,7.039c0.108-0.608,0.298-1.146,0.565-1.615c0.268-0.468,0.629-0.836,1.085-1.104
			c0.457-0.268,1.025-0.401,1.707-0.401c0.681,0,1.253,0.134,1.715,0.401c0.463,0.268,0.825,0.636,1.086,1.104
			c0.262,0.469,0.448,1.007,0.558,1.615c0.108,0.608,0.164,1.284,0.164,2.025c0,0.743-0.056,1.417-0.164,2.026
			c-0.109,0.608-0.299,1.147-0.566,1.615c-0.268,0.469-0.629,0.836-1.086,1.104c-0.456,0.268-1.025,0.402-1.706,0.402
			c-0.682,0-1.253-0.135-1.716-0.402s-0.824-0.635-1.086-1.104c-0.262-0.468-0.447-1.007-0.556-1.615
			c-0.11-0.608-0.165-1.283-0.165-2.026C71.44,8.323,71.495,7.647,71.605,7.039z M75.903,12.706c0.262-0.201,0.462-0.48,0.602-0.84
			c0.14-0.358,0.237-0.769,0.292-1.231c0.054-0.462,0.082-0.986,0.082-1.57s-0.028-1.107-0.082-1.569
			c-0.055-0.462-0.152-0.873-0.292-1.232c-0.14-0.359-0.338-0.639-0.594-0.839c-0.255-0.201-0.584-0.301-0.985-0.301
			c-0.377,0-0.688,0.104-0.938,0.31c-0.25,0.207-0.442,0.487-0.576,0.839c-0.133,0.353-0.229,0.76-0.282,1.223
			c-0.056,0.462-0.082,0.985-0.082,1.569c0,0.572,0.026,1.092,0.082,1.561c0.054,0.469,0.149,0.879,0.282,1.232
			c0.134,0.353,0.326,0.633,0.576,0.839c0.25,0.207,0.562,0.311,0.938,0.311C75.315,13.006,75.641,12.907,75.903,12.706z"/>
		<path fill="#EEEFF1" d="M80.164,4.174h1.46v1.149h0.036c0.194-0.438,0.514-0.781,0.958-1.031c0.443-0.249,0.914-0.374,1.414-0.374
			c0.572,0,1.028,0.122,1.369,0.365c0.34,0.244,0.59,0.639,0.748,1.186c0.231-0.45,0.554-0.821,0.967-1.113
			c0.414-0.292,0.864-0.438,1.35-0.438c0.609,0,1.094,0.1,1.451,0.301c0.36,0.201,0.619,0.456,0.777,0.767
			c0.156,0.311,0.255,0.624,0.291,0.94c0.037,0.316,0.055,0.682,0.055,1.095v6.935h-1.532V7.203c0-0.243-0.013-0.471-0.038-0.684
			c-0.023-0.213-0.078-0.417-0.163-0.612c-0.085-0.194-0.219-0.356-0.401-0.483s-0.42-0.191-0.711-0.191
			c-0.196,0-0.399,0.034-0.612,0.1c-0.214,0.067-0.41,0.176-0.593,0.329s-0.332,0.356-0.447,0.611
			c-0.116,0.256-0.174,0.566-0.174,0.931v6.752h-1.532V7.203c0-0.243-0.013-0.471-0.037-0.684s-0.079-0.417-0.165-0.612
			c-0.084-0.194-0.218-0.356-0.4-0.483c-0.184-0.127-0.42-0.191-0.712-0.191c-0.194,0-0.398,0.034-0.611,0.1
			C82.697,5.4,82.5,5.509,82.317,5.661c-0.184,0.152-0.332,0.356-0.447,0.611c-0.115,0.256-0.174,0.566-0.174,0.931v6.752h-1.532
			V4.174z"/>
		<path fill="#EEEFF1" d="M93.54,12.021h1.68v1.935h-1.68V12.021z"/>
		<path fill="#EEEFF1" d="M102.228,7.148c0-0.559-0.125-1.037-0.375-1.433s-0.642-0.593-1.177-0.593
			c-0.269,0-0.511,0.048-0.73,0.146c-0.218,0.097-0.419,0.286-0.602,0.565s-0.325,0.694-0.43,1.241
			c-0.103,0.548-0.154,1.248-0.154,2.099c0,0.474,0.015,0.903,0.046,1.286c0.029,0.384,0.103,0.776,0.219,1.177
			c0.115,0.402,0.304,0.73,0.565,0.986c0.261,0.256,0.604,0.383,1.031,0.383c0.315,0,0.579-0.072,0.794-0.219
			c0.212-0.146,0.377-0.34,0.492-0.584c0.115-0.243,0.198-0.505,0.246-0.785c0.049-0.279,0.074-0.565,0.074-0.857h1.532
			c0,0.426-0.058,0.849-0.175,1.269c-0.115,0.42-0.297,0.81-0.546,1.168c-0.25,0.358-0.581,0.651-0.995,0.876
			c-0.413,0.225-0.912,0.338-1.496,0.338c-1.181,0-2.041-0.411-2.582-1.232s-0.813-2.083-0.813-3.787
			c0-0.705,0.046-1.356,0.137-1.953c0.092-0.596,0.259-1.147,0.502-1.651c0.243-0.505,0.6-0.91,1.067-1.214
			c0.469-0.304,1.062-0.456,1.78-0.456c0.62,0,1.141,0.106,1.56,0.319c0.42,0.213,0.742,0.487,0.966,0.822
			c0.227,0.334,0.382,0.681,0.467,1.04s0.128,0.709,0.128,1.049H102.228z"/>
		<path fill="#EEEFF1" d="M105.036,7.039c0.11-0.608,0.299-1.146,0.566-1.615c0.268-0.468,0.63-0.836,1.086-1.104
			c0.457-0.268,1.025-0.401,1.707-0.401c0.681,0,1.253,0.134,1.715,0.401c0.463,0.268,0.824,0.636,1.086,1.104
			c0.262,0.469,0.447,1.007,0.557,1.615s0.164,1.284,0.164,2.025c0,0.743-0.055,1.417-0.164,2.026s-0.298,1.147-0.566,1.615
			c-0.268,0.469-0.629,0.836-1.085,1.104s-1.025,0.402-1.706,0.402c-0.682,0-1.254-0.135-1.716-0.402
			c-0.463-0.268-0.824-0.635-1.086-1.104c-0.262-0.468-0.447-1.007-0.558-1.615c-0.108-0.608-0.163-1.283-0.163-2.026
			C104.873,8.323,104.928,7.647,105.036,7.039z M109.335,12.706c0.262-0.201,0.463-0.48,0.602-0.84
			c0.141-0.358,0.238-0.769,0.293-1.231s0.082-0.986,0.082-1.57s-0.027-1.107-0.082-1.569s-0.152-0.873-0.293-1.232
			c-0.139-0.359-0.338-0.639-0.593-0.839s-0.584-0.301-0.985-0.301c-0.377,0-0.69,0.104-0.939,0.31
			c-0.25,0.207-0.441,0.487-0.575,0.839c-0.134,0.353-0.228,0.76-0.282,1.223c-0.056,0.462-0.082,0.985-0.082,1.569
			c0,0.572,0.026,1.092,0.082,1.561c0.055,0.469,0.148,0.879,0.282,1.232c0.134,0.353,0.325,0.633,0.575,0.839
			c0.249,0.207,0.563,0.311,0.939,0.311C108.748,13.006,109.073,12.907,109.335,12.706z"/>
	</g>
	<g>
		<path fill="#EEEFF1" d="M38.559,17.327c0.356,0.38,0.554,0.811,0.593,1.293H38.47c-0.075-0.365-0.227-0.656-0.453-0.87
			s-0.545-0.321-0.954-0.321c-0.499,0-0.902,0.196-1.21,0.591c-0.307,0.394-0.461,0.997-0.461,1.812
			c0,0.666,0.139,1.207,0.416,1.621c0.277,0.415,0.691,0.623,1.241,0.623c0.507,0,0.893-0.219,1.157-0.655
			c0.14-0.229,0.244-0.531,0.313-0.905H39.2c-0.059,0.599-0.258,1.101-0.596,1.506c-0.405,0.488-0.952,0.732-1.641,0.732
			c-0.593,0-1.091-0.201-1.494-0.602c-0.529-0.529-0.795-1.347-0.795-2.452c0-0.839,0.199-1.528,0.598-2.065
			c0.431-0.584,1.025-0.875,1.781-0.875C37.7,16.758,38.202,16.948,38.559,17.327z"/>
		<path fill="#EEEFF1" d="M42.747,18.868c0.333,0.355,0.499,0.879,0.499,1.57c0,0.668-0.147,1.221-0.439,1.656
			c-0.293,0.436-0.748,0.653-1.364,0.653c-0.515,0-0.924-0.192-1.225-0.578c-0.303-0.386-0.454-0.903-0.454-1.554
			c0-0.695,0.159-1.25,0.479-1.662c0.318-0.413,0.747-0.619,1.284-0.619C42.008,18.334,42.415,18.512,42.747,18.868z M42.354,21.624
			c0.154-0.35,0.23-0.738,0.23-1.166c0-0.387-0.055-0.701-0.166-0.943c-0.176-0.381-0.479-0.572-0.91-0.572
			c-0.383,0-0.66,0.162-0.834,0.487s-0.261,0.717-0.261,1.175c0,0.441,0.087,0.809,0.261,1.104c0.174,0.293,0.449,0.44,0.826,0.44
			C41.917,22.148,42.2,21.973,42.354,21.624z"/>
		<path fill="#EEEFF1" d="M44.023,18.454h0.601v0.589c0.178-0.243,0.367-0.417,0.566-0.522s0.42-0.159,0.664-0.159
			c0.534,0,0.895,0.205,1.082,0.616c0.104,0.225,0.154,0.545,0.154,0.964V22.6h-0.643v-2.613c0-0.253-0.034-0.457-0.102-0.611
			c-0.113-0.258-0.316-0.387-0.611-0.387c-0.15,0-0.273,0.017-0.369,0.05c-0.174,0.057-0.326,0.171-0.457,0.341
			c-0.105,0.137-0.174,0.278-0.205,0.424c-0.032,0.146-0.048,0.354-0.048,0.625V22.6h-0.633V18.454z"/>
		<path fill="#EEEFF1" d="M48.152,17.295h0.64v1.158h0.601v0.569h-0.601v2.706c0,0.145,0.045,0.242,0.133,0.291
			c0.05,0.028,0.132,0.043,0.246,0.043c0.031,0,0.063-0.002,0.099-0.003c0.035-0.002,0.076-0.007,0.123-0.013V22.6
			c-0.073,0.023-0.147,0.041-0.228,0.051c-0.077,0.01-0.162,0.016-0.254,0.016c-0.295,0-0.495-0.083-0.601-0.25
			c-0.106-0.166-0.158-0.383-0.158-0.648v-2.745h-0.51v-0.569h0.51V17.295z"/>
		<path fill="#EEEFF1" d="M50.043,18.454h0.601v0.717c0.05-0.14,0.17-0.31,0.362-0.51c0.192-0.199,0.413-0.3,0.663-0.3
			c0.013,0,0.031,0.001,0.061,0.004c0.028,0.003,0.076,0.008,0.145,0.016v0.735c-0.037-0.008-0.072-0.013-0.104-0.016
			c-0.032-0.002-0.066-0.004-0.104-0.004c-0.319,0-0.564,0.113-0.734,0.34c-0.172,0.226-0.257,0.485-0.257,0.779V22.6h-0.633V18.454
			z"/>
		<path fill="#EEEFF1" d="M55.149,18.868c0.332,0.355,0.499,0.879,0.499,1.57c0,0.668-0.147,1.221-0.439,1.656
			c-0.294,0.436-0.748,0.653-1.365,0.653c-0.514,0-0.922-0.192-1.225-0.578c-0.302-0.386-0.454-0.903-0.454-1.554
			c0-0.695,0.16-1.25,0.479-1.662c0.318-0.413,0.747-0.619,1.285-0.619C54.41,18.334,54.816,18.512,55.149,18.868z M54.757,21.624
			c0.154-0.35,0.231-0.738,0.231-1.166c0-0.387-0.056-0.701-0.167-0.943c-0.176-0.381-0.479-0.572-0.911-0.572
			c-0.382,0-0.659,0.162-0.834,0.487c-0.174,0.325-0.26,0.717-0.26,1.175c0,0.441,0.086,0.809,0.26,1.104
			c0.175,0.293,0.45,0.44,0.827,0.44C54.318,22.148,54.603,21.973,54.757,21.624z"/>
		<path fill="#EEEFF1" d="M56.443,16.913h0.632V22.6h-0.632V16.913z"/>
		<path fill="#EEEFF1" d="M62.092,18.582c0.112,0.077,0.239,0.213,0.382,0.407v-2.096h0.607V22.6h-0.569v-0.576
			c-0.146,0.256-0.321,0.439-0.521,0.554c-0.2,0.113-0.431,0.17-0.69,0.17c-0.418,0-0.779-0.194-1.085-0.583
			c-0.306-0.388-0.458-0.904-0.458-1.551c0-0.604,0.14-1.127,0.418-1.569c0.279-0.442,0.678-0.664,1.195-0.664
			C61.657,18.38,61.897,18.448,62.092,18.582z M60.68,21.691c0.17,0.3,0.442,0.448,0.818,0.448c0.291,0,0.53-0.139,0.718-0.416
			s0.282-0.675,0.282-1.193c0-0.524-0.097-0.912-0.29-1.164s-0.433-0.377-0.718-0.377c-0.316,0-0.573,0.134-0.771,0.402
			c-0.197,0.268-0.295,0.663-0.295,1.185C60.425,21.02,60.509,21.391,60.68,21.691z"/>
		<path fill="#EEEFF1" d="M66.351,18.569c0.25,0.138,0.44,0.316,0.57,0.535c0.125,0.209,0.21,0.453,0.251,0.732
			c0.038,0.191,0.056,0.496,0.056,0.914H64.49c0.011,0.422,0.102,0.76,0.269,1.015c0.168,0.255,0.427,0.383,0.777,0.383
			c0.328,0,0.59-0.12,0.785-0.362c0.109-0.14,0.188-0.302,0.232-0.486h0.622c-0.017,0.152-0.071,0.322-0.163,0.51
			c-0.094,0.188-0.196,0.34-0.311,0.459c-0.19,0.206-0.426,0.346-0.707,0.418c-0.152,0.041-0.323,0.062-0.514,0.062
			c-0.465,0-0.86-0.188-1.184-0.563c-0.324-0.375-0.485-0.9-0.485-1.577c0-0.666,0.163-1.207,0.489-1.622
			c0.325-0.416,0.752-0.624,1.278-0.624C65.845,18.361,66.103,18.43,66.351,18.569z M66.578,20.196
			c-0.025-0.302-0.085-0.543-0.178-0.724c-0.172-0.335-0.459-0.503-0.86-0.503c-0.288,0-0.53,0.115-0.725,0.346
			c-0.195,0.231-0.299,0.525-0.311,0.881H66.578z"/>
		<path fill="#EEEFF1" d="M69.977,18.473h0.619v0.55c0.126-0.188,0.265-0.334,0.415-0.438c0.214-0.155,0.465-0.231,0.754-0.231
			c0.428,0,0.791,0.18,1.088,0.539c0.3,0.36,0.449,0.875,0.449,1.543c0,0.904-0.217,1.549-0.646,1.936
			c-0.273,0.246-0.59,0.369-0.952,0.369c-0.284,0-0.523-0.069-0.716-0.205c-0.113-0.078-0.239-0.211-0.378-0.399v2.118h-0.633
			V18.473z M72.356,21.723c0.196-0.271,0.295-0.68,0.295-1.221c0-0.33-0.044-0.615-0.131-0.852
			c-0.164-0.457-0.465-0.686-0.902-0.686c-0.44,0-0.741,0.241-0.902,0.724c-0.088,0.259-0.131,0.586-0.131,0.983
			c0,0.32,0.043,0.593,0.131,0.816c0.164,0.43,0.465,0.644,0.902,0.644C71.914,22.132,72.16,21.997,72.356,21.723z"/>
		<path fill="#EEEFF1" d="M74.05,18.454h0.6v0.717c0.05-0.14,0.17-0.31,0.363-0.51c0.191-0.199,0.413-0.3,0.664-0.3
			c0.012,0,0.031,0.001,0.059,0.004c0.029,0.003,0.077,0.008,0.145,0.016v0.735c-0.037-0.008-0.072-0.013-0.104-0.016
			c-0.031-0.002-0.066-0.004-0.104-0.004c-0.32,0-0.563,0.113-0.734,0.34c-0.172,0.226-0.257,0.485-0.257,0.779V22.6H74.05V18.454z"
			/>
		<path fill="#EEEFF1" d="M79.155,18.868c0.333,0.355,0.5,0.879,0.5,1.57c0,0.668-0.147,1.221-0.439,1.656
			c-0.294,0.436-0.75,0.653-1.365,0.653c-0.515,0-0.923-0.192-1.225-0.578c-0.303-0.386-0.454-0.903-0.454-1.554
			c0-0.695,0.159-1.25,0.479-1.662c0.318-0.413,0.747-0.619,1.284-0.619C78.416,18.334,78.823,18.512,79.155,18.868z M78.763,21.624
			c0.154-0.35,0.231-0.738,0.231-1.166c0-0.387-0.056-0.701-0.167-0.943c-0.176-0.381-0.479-0.572-0.91-0.572
			c-0.383,0-0.66,0.162-0.834,0.487s-0.261,0.717-0.261,1.175c0,0.441,0.087,0.809,0.261,1.104c0.174,0.293,0.449,0.44,0.827,0.44
			C78.325,22.148,78.608,21.973,78.763,21.624z"/>
		<path fill="#EEEFF1" d="M82.917,18.674c0.268,0.228,0.427,0.619,0.48,1.174h-0.615c-0.037-0.256-0.123-0.469-0.256-0.637
			c-0.134-0.17-0.349-0.254-0.645-0.254c-0.402,0-0.69,0.217-0.863,0.649c-0.112,0.281-0.169,0.628-0.169,1.04
			c0,0.415,0.08,0.765,0.239,1.049c0.159,0.283,0.41,0.425,0.752,0.425c0.262,0,0.471-0.088,0.624-0.265
			c0.153-0.176,0.26-0.416,0.317-0.723h0.615c-0.07,0.55-0.246,0.951-0.527,1.206s-0.641,0.382-1.078,0.382
			c-0.492,0-0.885-0.199-1.178-0.595c-0.293-0.396-0.439-0.892-0.439-1.485c0-0.728,0.16-1.294,0.481-1.699s0.729-0.607,1.226-0.607
			C82.308,18.334,82.652,18.448,82.917,18.674z"/>
		<path fill="#EEEFF1" d="M86.354,18.569c0.248,0.138,0.439,0.316,0.569,0.535c0.126,0.209,0.21,0.453,0.252,0.732
			c0.037,0.191,0.056,0.496,0.056,0.914h-2.738c0.012,0.422,0.103,0.76,0.27,1.015s0.426,0.383,0.777,0.383
			c0.328,0,0.59-0.12,0.785-0.362c0.108-0.14,0.187-0.302,0.231-0.486h0.622c-0.017,0.152-0.07,0.322-0.163,0.51
			s-0.196,0.34-0.31,0.459c-0.191,0.206-0.427,0.346-0.708,0.418c-0.151,0.041-0.322,0.062-0.513,0.062
			c-0.467,0-0.861-0.188-1.184-0.563c-0.324-0.375-0.486-0.9-0.486-1.577c0-0.666,0.163-1.207,0.489-1.622
			c0.325-0.416,0.752-0.624,1.278-0.624C85.849,18.361,86.105,18.43,86.354,18.569z M86.581,20.196
			c-0.025-0.302-0.085-0.543-0.178-0.724c-0.172-0.335-0.458-0.503-0.86-0.503c-0.288,0-0.53,0.115-0.725,0.346
			c-0.195,0.231-0.3,0.525-0.31,0.881H86.581z"/>
		<path fill="#EEEFF1" d="M88.409,21.299c0.02,0.232,0.073,0.41,0.162,0.535c0.161,0.225,0.444,0.336,0.846,0.336
			c0.239,0,0.449-0.056,0.631-0.168s0.271-0.285,0.271-0.521c0-0.179-0.071-0.313-0.217-0.407c-0.093-0.057-0.275-0.122-0.55-0.197
			l-0.511-0.139c-0.326-0.088-0.566-0.187-0.721-0.295c-0.276-0.188-0.415-0.449-0.415-0.782c0-0.392,0.13-0.71,0.39-0.952
			s0.61-0.363,1.049-0.363c0.575,0,0.99,0.183,1.244,0.549c0.159,0.232,0.236,0.483,0.23,0.752h-0.597
			c-0.013-0.156-0.063-0.3-0.155-0.428c-0.148-0.183-0.406-0.273-0.773-0.273c-0.244,0-0.43,0.05-0.556,0.15
			c-0.126,0.1-0.188,0.232-0.188,0.396c0,0.181,0.083,0.325,0.248,0.433c0.096,0.064,0.236,0.121,0.422,0.171l0.427,0.111
			c0.463,0.122,0.773,0.239,0.931,0.354c0.246,0.178,0.369,0.457,0.369,0.84c0,0.369-0.129,0.688-0.386,0.955
			c-0.257,0.27-0.649,0.403-1.177,0.403c-0.566,0-0.968-0.14-1.204-0.42c-0.235-0.28-0.362-0.626-0.379-1.04H88.409z"/>
		<path fill="#EEEFF1" d="M94.358,18.868c0.333,0.355,0.499,0.879,0.499,1.57c0,0.668-0.146,1.221-0.44,1.656
			c-0.293,0.436-0.748,0.653-1.363,0.653c-0.515,0-0.923-0.192-1.225-0.578c-0.303-0.386-0.455-0.903-0.455-1.554
			c0-0.695,0.16-1.25,0.479-1.662c0.318-0.413,0.746-0.619,1.285-0.619C93.619,18.334,94.026,18.512,94.358,18.868z M93.966,21.624
			c0.154-0.35,0.231-0.738,0.231-1.166c0-0.387-0.056-0.701-0.167-0.943c-0.176-0.381-0.48-0.572-0.911-0.572
			c-0.382,0-0.659,0.162-0.835,0.487c-0.172,0.325-0.259,0.717-0.259,1.175c0,0.441,0.087,0.809,0.259,1.104
			c0.176,0.293,0.451,0.44,0.828,0.44C93.527,22.148,93.812,21.973,93.966,21.624z"/>
		<path fill="#EEEFF1" d="M96.011,21.299c0.02,0.232,0.072,0.41,0.161,0.535c0.161,0.225,0.444,0.336,0.847,0.336
			c0.238,0,0.449-0.056,0.631-0.168s0.272-0.285,0.272-0.521c0-0.179-0.072-0.313-0.218-0.407c-0.093-0.057-0.276-0.122-0.551-0.197
			l-0.51-0.139c-0.326-0.088-0.566-0.187-0.721-0.295c-0.276-0.188-0.415-0.449-0.415-0.782c0-0.392,0.13-0.71,0.39-0.952
			s0.61-0.363,1.049-0.363c0.574,0,0.988,0.183,1.244,0.549c0.158,0.232,0.235,0.483,0.23,0.752h-0.597
			c-0.013-0.156-0.064-0.3-0.155-0.428c-0.148-0.183-0.406-0.273-0.773-0.273c-0.244,0-0.43,0.05-0.556,0.15
			c-0.126,0.1-0.188,0.232-0.188,0.396c0,0.181,0.082,0.325,0.248,0.433c0.096,0.064,0.236,0.121,0.422,0.171l0.427,0.111
			c0.463,0.122,0.773,0.239,0.931,0.354c0.246,0.178,0.369,0.457,0.369,0.84c0,0.369-0.129,0.688-0.387,0.955
			c-0.258,0.27-0.648,0.403-1.176,0.403c-0.566,0-0.968-0.14-1.204-0.42c-0.235-0.28-0.362-0.626-0.379-1.04H96.011z"/>
		<path fill="#EEEFF1" d="M103.558,18.569c0.248,0.138,0.439,0.316,0.568,0.535c0.126,0.209,0.211,0.453,0.252,0.732
			c0.038,0.191,0.056,0.496,0.056,0.914h-2.737c0.012,0.422,0.102,0.76,0.269,1.015s0.427,0.383,0.777,0.383
			c0.327,0,0.59-0.12,0.785-0.362c0.108-0.14,0.187-0.302,0.231-0.486h0.623c-0.018,0.152-0.071,0.322-0.164,0.51
			s-0.195,0.34-0.31,0.459c-0.19,0.206-0.427,0.346-0.708,0.418c-0.151,0.041-0.322,0.062-0.514,0.062
			c-0.465,0-0.859-0.188-1.184-0.563c-0.323-0.375-0.484-0.9-0.484-1.577c0-0.666,0.162-1.207,0.488-1.622
			c0.326-0.416,0.752-0.624,1.279-0.624C103.05,18.361,103.308,18.43,103.558,18.569z M103.784,20.196
			c-0.025-0.302-0.086-0.543-0.178-0.724c-0.172-0.335-0.459-0.503-0.86-0.503c-0.289,0-0.53,0.115-0.726,0.346
			c-0.195,0.231-0.298,0.525-0.31,0.881H103.784z"/>
		<path fill="#EEEFF1" d="M105.235,18.454h0.626v0.589c0.149-0.204,0.285-0.353,0.407-0.445c0.209-0.157,0.445-0.236,0.71-0.236
			c0.3,0,0.542,0.081,0.724,0.244c0.104,0.093,0.197,0.229,0.281,0.41c0.141-0.222,0.306-0.386,0.496-0.493
			c0.189-0.107,0.402-0.161,0.64-0.161c0.506,0,0.851,0.202,1.032,0.604c0.1,0.217,0.148,0.508,0.148,0.875v2.76h-0.657v-2.881
			c0-0.275-0.063-0.465-0.188-0.568s-0.277-0.154-0.458-0.154c-0.248,0-0.464,0.091-0.642,0.273c-0.18,0.184-0.27,0.49-0.27,0.918
			V22.6h-0.643v-2.706c0-0.281-0.03-0.486-0.092-0.615c-0.096-0.194-0.275-0.29-0.537-0.29c-0.239,0-0.456,0.102-0.651,0.305
			c-0.196,0.205-0.294,0.574-0.294,1.108V22.6h-0.633V18.454z"/>
		<path fill="#EEEFF1" d="M111.179,18.473h0.618v0.55c0.126-0.188,0.265-0.334,0.415-0.438c0.214-0.155,0.465-0.231,0.754-0.231
			c0.429,0,0.791,0.18,1.09,0.539c0.297,0.36,0.447,0.875,0.447,1.543c0,0.904-0.215,1.549-0.646,1.936
			c-0.271,0.246-0.59,0.369-0.951,0.369c-0.285,0-0.524-0.069-0.717-0.205c-0.113-0.078-0.239-0.211-0.378-0.399v2.118h-0.632
			V18.473z M113.559,21.723c0.196-0.271,0.294-0.68,0.294-1.221c0-0.33-0.043-0.615-0.131-0.852
			c-0.164-0.457-0.465-0.686-0.902-0.686c-0.439,0-0.74,0.241-0.902,0.724c-0.088,0.259-0.131,0.586-0.131,0.983
			c0,0.32,0.043,0.593,0.131,0.816c0.164,0.43,0.465,0.644,0.902,0.644C113.115,22.132,113.361,21.997,113.559,21.723z"/>
		<path fill="#EEEFF1" d="M115.251,18.454h0.602v0.717c0.049-0.14,0.17-0.31,0.362-0.51c0.191-0.199,0.413-0.3,0.664-0.3
			c0.011,0,0.031,0.001,0.06,0.004c0.027,0.003,0.076,0.008,0.145,0.016v0.735c-0.038-0.008-0.073-0.013-0.104-0.016
			c-0.032-0.002-0.065-0.004-0.104-0.004c-0.319,0-0.563,0.113-0.734,0.34c-0.171,0.226-0.257,0.485-0.257,0.779V22.6h-0.633V18.454
			z"/>
		<path fill="#EEEFF1" d="M119.956,18.569c0.248,0.138,0.439,0.316,0.568,0.535c0.126,0.209,0.211,0.453,0.252,0.732
			c0.037,0.191,0.056,0.496,0.056,0.914h-2.737c0.012,0.422,0.102,0.76,0.269,1.015s0.427,0.383,0.777,0.383
			c0.328,0,0.59-0.12,0.785-0.362c0.108-0.14,0.187-0.302,0.231-0.486h0.623c-0.018,0.152-0.071,0.322-0.164,0.51
			s-0.195,0.34-0.31,0.459c-0.19,0.206-0.427,0.346-0.708,0.418c-0.151,0.041-0.322,0.062-0.514,0.062
			c-0.465,0-0.859-0.188-1.183-0.563c-0.324-0.375-0.485-0.9-0.485-1.577c0-0.666,0.162-1.207,0.488-1.622
			c0.326-0.416,0.752-0.624,1.279-0.624C119.449,18.361,119.706,18.43,119.956,18.569z M120.183,20.196
			c-0.025-0.302-0.086-0.543-0.178-0.724c-0.172-0.335-0.459-0.503-0.861-0.503c-0.288,0-0.529,0.115-0.725,0.346
			c-0.195,0.231-0.299,0.525-0.31,0.881H120.183z"/>
		<path fill="#EEEFF1" d="M122.009,21.299c0.02,0.232,0.073,0.41,0.162,0.535c0.162,0.225,0.444,0.336,0.846,0.336
			c0.239,0,0.449-0.056,0.632-0.168c0.182-0.112,0.272-0.285,0.272-0.521c0-0.179-0.072-0.313-0.218-0.407
			c-0.093-0.057-0.276-0.122-0.55-0.197l-0.511-0.139c-0.326-0.088-0.567-0.187-0.722-0.295c-0.275-0.188-0.414-0.449-0.414-0.782
			c0-0.392,0.129-0.71,0.39-0.952c0.26-0.242,0.61-0.363,1.049-0.363c0.573,0,0.989,0.183,1.243,0.549
			c0.159,0.232,0.236,0.483,0.231,0.752h-0.597c-0.013-0.156-0.064-0.3-0.155-0.428c-0.149-0.183-0.407-0.273-0.773-0.273
			c-0.245,0-0.431,0.05-0.556,0.15c-0.126,0.1-0.189,0.232-0.189,0.396c0,0.181,0.083,0.325,0.249,0.433
			c0.095,0.064,0.235,0.121,0.421,0.171l0.428,0.111c0.462,0.122,0.773,0.239,0.931,0.354c0.245,0.178,0.369,0.457,0.369,0.84
			c0,0.369-0.13,0.688-0.387,0.955c-0.257,0.27-0.649,0.403-1.176,0.403c-0.567,0-0.968-0.14-1.204-0.42s-0.363-0.626-0.379-1.04
			H122.009z"/>
		<path fill="#EEEFF1" d="M127.249,20.091c0.146-0.021,0.243-0.088,0.292-0.201c0.028-0.063,0.042-0.151,0.042-0.269
			c0-0.238-0.076-0.41-0.23-0.519c-0.152-0.107-0.371-0.161-0.656-0.161c-0.33,0-0.563,0.099-0.702,0.296
			c-0.077,0.108-0.127,0.271-0.15,0.486h-0.591c0.012-0.513,0.162-0.869,0.451-1.07c0.289-0.2,0.625-0.3,1.006-0.3
			c0.442,0,0.802,0.092,1.078,0.277c0.273,0.187,0.41,0.476,0.41,0.868v2.39c0,0.072,0.014,0.13,0.041,0.174
			c0.026,0.043,0.083,0.065,0.17,0.065c0.027,0,0.061-0.002,0.094-0.006c0.036-0.004,0.074-0.01,0.113-0.017v0.514
			c-0.099,0.031-0.173,0.051-0.225,0.059s-0.122,0.012-0.211,0.012c-0.218,0-0.376-0.086-0.475-0.256
			c-0.051-0.09-0.088-0.218-0.108-0.383c-0.13,0.186-0.313,0.347-0.556,0.484c-0.241,0.136-0.507,0.205-0.798,0.205
			c-0.349,0-0.634-0.117-0.855-0.351s-0.332-0.525-0.332-0.876c0-0.384,0.108-0.682,0.327-0.893
			c0.218-0.212,0.502-0.342,0.857-0.392L127.249,20.091z M125.917,21.973c0.133,0.117,0.293,0.175,0.475,0.175
			c0.223,0,0.438-0.057,0.647-0.171c0.351-0.188,0.526-0.496,0.526-0.924v-0.561c-0.077,0.055-0.176,0.101-0.299,0.137
			c-0.121,0.036-0.24,0.062-0.357,0.077l-0.382,0.054c-0.229,0.034-0.401,0.087-0.517,0.158c-0.195,0.122-0.294,0.314-0.294,0.58
			C125.717,21.7,125.784,21.858,125.917,21.973z"/>
		<path fill="#EEEFF1" d="M129.252,18.454h0.601v0.717c0.05-0.14,0.17-0.31,0.363-0.51c0.191-0.199,0.413-0.3,0.663-0.3
			c0.012,0,0.031,0.001,0.06,0.004c0.027,0.003,0.076,0.008,0.145,0.016v0.735c-0.037-0.008-0.072-0.013-0.104-0.016
			c-0.032-0.002-0.066-0.004-0.104-0.004c-0.319,0-0.564,0.113-0.734,0.34c-0.172,0.226-0.257,0.485-0.257,0.779V22.6h-0.633V18.454
			z"/>
		<path fill="#EEEFF1" d="M131.632,16.913h0.643v0.79h-0.643V16.913z M131.632,18.473h0.643V22.6h-0.643V18.473z"/>
		<path fill="#EEEFF1" d="M135.247,20.091c0.146-0.021,0.243-0.088,0.292-0.201c0.028-0.063,0.042-0.151,0.042-0.269
			c0-0.238-0.076-0.41-0.23-0.519c-0.152-0.107-0.371-0.161-0.656-0.161c-0.33,0-0.564,0.099-0.702,0.296
			c-0.077,0.108-0.127,0.271-0.15,0.486h-0.591c0.012-0.513,0.162-0.869,0.451-1.07c0.289-0.2,0.625-0.3,1.006-0.3
			c0.442,0,0.802,0.092,1.078,0.277c0.273,0.187,0.41,0.476,0.41,0.868v2.39c0,0.072,0.014,0.13,0.041,0.174
			c0.026,0.043,0.082,0.065,0.17,0.065c0.027,0,0.061-0.002,0.094-0.006c0.035-0.004,0.074-0.01,0.113-0.017v0.514
			c-0.099,0.031-0.174,0.051-0.225,0.059c-0.052,0.008-0.123,0.012-0.211,0.012c-0.218,0-0.377-0.086-0.475-0.256
			c-0.051-0.09-0.088-0.218-0.108-0.383c-0.13,0.186-0.313,0.347-0.556,0.484c-0.241,0.136-0.508,0.205-0.798,0.205
			c-0.349,0-0.634-0.117-0.856-0.351c-0.221-0.233-0.331-0.525-0.331-0.876c0-0.384,0.108-0.682,0.327-0.893
			c0.217-0.212,0.503-0.342,0.857-0.392L135.247,20.091z M133.915,21.973c0.134,0.117,0.293,0.175,0.475,0.175
			c0.223,0,0.438-0.057,0.646-0.171c0.352-0.188,0.527-0.496,0.527-0.924v-0.561c-0.076,0.055-0.178,0.101-0.298,0.137
			c-0.122,0.036-0.241,0.062-0.358,0.077l-0.382,0.054c-0.229,0.034-0.401,0.087-0.517,0.158c-0.195,0.122-0.294,0.314-0.294,0.58
			C133.715,21.7,133.782,21.858,133.915,21.973z"/>
		<path fill="#EEEFF1" d="M137.251,16.913h0.633V22.6h-0.633V16.913z"/>
		<path fill="#EEEFF1" d="M141.157,18.569c0.249,0.138,0.439,0.316,0.569,0.535c0.126,0.209,0.21,0.453,0.251,0.732
			c0.038,0.191,0.057,0.496,0.057,0.914h-2.738c0.012,0.422,0.102,0.76,0.27,1.015c0.167,0.255,0.426,0.383,0.777,0.383
			c0.328,0,0.59-0.12,0.785-0.362c0.109-0.14,0.187-0.302,0.231-0.486h0.622c-0.017,0.152-0.07,0.322-0.163,0.51
			s-0.196,0.34-0.311,0.459c-0.19,0.206-0.426,0.346-0.707,0.418c-0.151,0.041-0.322,0.062-0.513,0.062
			c-0.466,0-0.861-0.188-1.186-0.563c-0.322-0.375-0.484-0.9-0.484-1.577c0-0.666,0.163-1.207,0.489-1.622
			c0.325-0.416,0.752-0.624,1.278-0.624C140.651,18.361,140.908,18.43,141.157,18.569z M141.384,20.196
			c-0.025-0.302-0.085-0.543-0.177-0.724c-0.173-0.335-0.46-0.503-0.861-0.503c-0.288,0-0.53,0.115-0.725,0.346
			c-0.195,0.231-0.299,0.525-0.311,0.881H141.384z"/>
		<path fill="#EEEFF1" d="M143.211,21.299c0.02,0.232,0.073,0.41,0.162,0.535c0.161,0.225,0.444,0.336,0.845,0.336
			c0.24,0,0.451-0.056,0.633-0.168s0.271-0.285,0.271-0.521c0-0.179-0.072-0.313-0.219-0.407c-0.092-0.057-0.274-0.122-0.549-0.197
			l-0.51-0.139c-0.326-0.088-0.567-0.187-0.722-0.295c-0.276-0.188-0.415-0.449-0.415-0.782c0-0.392,0.13-0.71,0.391-0.952
			c0.26-0.242,0.609-0.363,1.049-0.363c0.574,0,0.988,0.183,1.243,0.549c0.159,0.232,0.236,0.483,0.231,0.752h-0.598
			c-0.012-0.156-0.064-0.3-0.154-0.428c-0.15-0.183-0.407-0.273-0.773-0.273c-0.246,0-0.432,0.05-0.557,0.15
			c-0.125,0.1-0.189,0.232-0.189,0.396c0,0.181,0.084,0.325,0.25,0.433c0.095,0.064,0.235,0.121,0.422,0.171l0.426,0.111
			c0.463,0.122,0.773,0.239,0.932,0.354c0.245,0.178,0.369,0.457,0.369,0.84c0,0.369-0.13,0.688-0.387,0.955
			c-0.258,0.27-0.649,0.403-1.176,0.403c-0.566,0-0.969-0.14-1.205-0.42c-0.235-0.28-0.362-0.626-0.379-1.04H143.211z"/>
	</g>
</g>
</svg>
